<svg width="16" height="16" viewBox="0 0 16 16" fill="none" xmlns="http://www.w3.org/2000/svg">
<g id="Frame">
<g id="Vector">
<path fill-rule="evenodd" clip-rule="evenodd" d="M7.99967 2.33301C4.87006 2.33301 2.33301 4.87006 2.33301 7.99967C2.33301 11.1293 4.87006 13.6663 7.99967 13.6663C11.1293 13.6663 13.6663 11.1293 13.6663 7.99967C13.6663 4.87006 11.1293 2.33301 7.99967 2.33301ZM1.33301 7.99967C1.33301 4.31778 4.31778 1.33301 7.99967 1.33301C11.6816 1.33301 14.6663 4.31778 14.6663 7.99967C14.6663 11.6816 11.6816 14.6663 7.99967 14.6663C4.31778 14.6663 1.33301 11.6816 1.33301 7.99967Z" fill=""/>
<path fill-rule="evenodd" clip-rule="evenodd" d="M7.99967 11.333C8.27582 11.333 8.49967 11.1091 8.49967 10.833V5.16634C8.49967 4.8902 8.27582 4.66634 7.99967 4.66634C7.72353 4.66634 7.49967 4.8902 7.49967 5.16634V10.833C7.49967 11.1091 7.72353 11.333 7.99967 11.333Z" fill=""/>
<path fill-rule="evenodd" clip-rule="evenodd" d="M4.66634 7.99967C4.66634 8.27582 4.8902 8.49967 5.16634 8.49967H10.833C11.1091 8.49967 11.333 8.27582 11.333 7.99967C11.333 7.72353 11.1091 7.49967 10.833 7.49967H5.16634C4.8902 7.49967 4.66634 7.72353 4.66634 7.99967Z" fill=""/>
</g>
</g>
</svg>
