<svg width="20" height="20" viewBox="0 0 20 20" fill="none" xmlns="http://www.w3.org/2000/svg">
<g id="Add">
<path id="Vector" d="M10.0005 3.24707C6.27775 3.24707 3.24805 6.27677 3.24805 9.99955C3.24805 13.7223 6.27775 16.752 10.0005 16.752C13.7233 16.752 16.753 13.7223 16.753 9.99955C16.753 6.27677 13.7233 3.24707 10.0005 3.24707ZM10.0005 15.8015C6.8124 15.8015 4.19854 13.2075 4.19854 9.99955C4.19854 6.79162 6.7926 4.19757 10.0005 4.19757C13.1886 4.19757 15.8025 6.79162 15.8025 9.99955C15.8025 13.2075 13.1886 15.8015 10.0005 15.8015Z" fill="#000099"/>
<path id="Vector_2" d="M13.1091 9.46536H10.4754V6.83169C10.4754 6.57427 10.2576 6.35645 10.0002 6.35645C9.74275 6.35645 9.52493 6.57427 9.52493 6.83169V9.46536H6.89126C6.63384 9.46536 6.41602 9.68318 6.41602 9.9406C6.41602 10.198 6.63384 10.4159 6.89126 10.4159H9.52493V13.0495C9.52493 13.3069 9.74275 13.5248 10.0002 13.5248C10.2576 13.5248 10.4754 13.3069 10.4754 13.0495V10.4159H13.1091C13.3665 10.4159 13.5843 10.198 13.5843 9.9406C13.5843 9.68318 13.3665 9.46536 13.1091 9.46536Z" fill="#000099"/>
</g>
</svg>
