<svg width="20" height="20" viewBox="0 0 20 20" fill="none" xmlns="http://www.w3.org/2000/svg">
<g id="Afternoon">
<g id="Vector">
<path fill-rule="evenodd" clip-rule="evenodd" d="M9.99833 6.66498C8.15738 6.66498 6.665 8.15736 6.665 9.99831C6.665 11.8393 8.15738 13.3316 9.99833 13.3316C11.8393 13.3316 13.3317 11.8393 13.3317 9.99831C13.3317 8.15736 11.8393 6.66498 9.99833 6.66498ZM5.415 9.99831C5.415 7.46701 7.46702 5.41498 9.99833 5.41498C12.5296 5.41498 14.5817 7.46701 14.5817 9.99831C14.5817 12.5296 12.5296 14.5816 9.99833 14.5816C7.46702 14.5816 5.415 12.5296 5.415 9.99831Z" fill="black"/>
<path fill-rule="evenodd" clip-rule="evenodd" d="M9.99833 1.66406C10.3435 1.66406 10.6233 1.94388 10.6233 2.28906V3.1224C10.6233 3.46757 10.3435 3.7474 9.99833 3.7474C9.65315 3.7474 9.37333 3.46757 9.37333 3.1224V2.28906C9.37333 1.94388 9.65315 1.66406 9.99833 1.66406Z" fill="black"/>
<path fill-rule="evenodd" clip-rule="evenodd" d="M9.99833 16.1481C10.3435 16.1481 10.6233 16.4279 10.6233 16.7731V17.7076C10.6233 18.0528 10.3435 18.3326 9.99833 18.3326C9.65315 18.3326 9.37333 18.0528 9.37333 17.7076V16.7731C9.37333 16.4279 9.65315 16.1481 9.99833 16.1481Z" fill="black"/>
<path fill-rule="evenodd" clip-rule="evenodd" d="M18.3326 9.99831C18.3326 10.3435 18.0528 10.6233 17.7076 10.6233H16.7731C16.4279 10.6233 16.1481 10.3435 16.1481 9.99831C16.1481 9.65313 16.4279 9.37331 16.7731 9.37331H17.7076C18.0528 9.37331 18.3326 9.65313 18.3326 9.99831Z" fill="black"/>
<path fill-rule="evenodd" clip-rule="evenodd" d="M3.84852 9.99831C3.84852 10.3435 3.56869 10.6233 3.22352 10.6233H2.28906C1.94388 10.6233 1.66406 10.3435 1.66406 9.99831C1.66406 9.65313 1.94388 9.37331 2.28906 9.37331H3.22352C3.56869 9.37331 3.84852 9.65313 3.84852 9.99831Z" fill="black"/>
<path fill-rule="evenodd" clip-rule="evenodd" d="M15.8915 15.8915C15.6474 16.1356 15.2517 16.1356 15.0076 15.8915L14.3469 15.2307C14.1028 14.9867 14.1028 14.5909 14.3469 14.3469C14.591 14.1028 14.9867 14.1028 15.2308 14.3469L15.8915 15.0076C16.1356 15.2517 16.1356 15.6474 15.8915 15.8915Z" fill="black"/>
<path fill-rule="evenodd" clip-rule="evenodd" d="M5.64979 5.64977C5.40571 5.89385 5.00998 5.89385 4.7659 5.64977L4.10514 4.98901C3.86107 4.74493 3.86107 4.3492 4.10514 4.10512C4.34922 3.86105 4.74495 3.86105 4.98903 4.10512L5.64979 4.76588C5.89386 5.00996 5.89386 5.40569 5.64979 5.64977Z" fill="black"/>
<path fill-rule="evenodd" clip-rule="evenodd" d="M15.8915 4.10512C16.1356 4.3492 16.1356 4.74493 15.8915 4.989L15.2308 5.64976C14.9867 5.89384 14.591 5.89384 14.3469 5.64976C14.1028 5.40568 14.1028 5.00996 14.3469 4.76588L15.0076 4.10512C15.2517 3.86104 15.6474 3.86104 15.8915 4.10512Z" fill="black"/>
<path fill-rule="evenodd" clip-rule="evenodd" d="M5.64979 14.3469C5.89386 14.5909 5.89386 14.9867 5.64979 15.2307L4.98903 15.8915C4.74495 16.1356 4.34922 16.1356 4.10514 15.8915C3.86107 15.6474 3.86107 15.2517 4.10514 15.0076L4.7659 14.3469C5.00998 14.1028 5.40571 14.1028 5.64979 14.3469Z" fill="black"/>
</g>
</g>
</svg>
