<svg width="9" height="10" viewBox="0 0 9 10" fill="none" xmlns="http://www.w3.org/2000/svg">
<path d="M3.78831 0.666146L5.68104 4.31415L7.89594 4.31415C8.23019 4.31415 8.5 4.62043 8.5 4.99986C8.5 5.37929 8.23019 5.68557 7.89594 5.68557L5.68104 5.68557L3.78831 9.33357C3.71582 9.47986 3.57487 9.57129 3.42587 9.57129C3.14398 9.57129 2.94262 9.265 3.01914 8.95872L3.86482 5.68557L1.65395 5.68557L1.1103 6.71872C1.07405 6.78729 1.00559 6.82843 0.937133 6.82843L0.735779 6.82843L0.703562 6.82843C0.570668 6.82843 0.474018 6.68672 0.506235 6.545L0.800212 5.21015L0.848537 4.99986L0.812293 4.82615L0.767995 4.63415L0.574695 3.76557L0.506235 3.45929C0.474018 3.313 0.570668 3.17586 0.703562 3.17586L0.852564 3.17586L0.937133 3.17586C1.00962 3.17586 1.07405 3.217 1.1103 3.28557L1.65395 4.31415L3.86885 4.31415L3.02316 1.041C2.94262 0.734718 3.14398 0.428432 3.42587 0.428432C3.57487 0.428432 3.71582 0.51986 3.78831 0.666146Z" fill="#E2EBF2"/>
</svg>
