<svg width="17" height="16" viewBox="0 0 17 16" fill="none" xmlns="http://www.w3.org/2000/svg">
<g id="Frame">
<g id="Vector">
<path fill-rule="evenodd" clip-rule="evenodd" d="M5.91507 6.90736C5.91507 5.47936 7.07227 4.32216 8.50027 4.32216C9.92756 4.32216 11.0846 5.47949 11.0846 6.90736C11.0846 8.33451 9.92742 9.49171 8.50027 9.49171C7.0724 9.49171 5.91507 8.33464 5.91507 6.90736ZM8.50027 5.32216C7.62456 5.32216 6.91507 6.03164 6.91507 6.90736C6.91507 7.78209 7.62442 8.49171 8.50027 8.49171C9.37514 8.49171 10.0846 7.78223 10.0846 6.90736C10.0846 6.03151 9.37501 5.32216 8.50027 5.32216Z" fill="#F9F9F9"/>
<path fill-rule="evenodd" clip-rule="evenodd" d="M8.49952 2.33594C5.94265 2.33594 3.86328 4.42746 3.86328 7.01585C3.86328 8.65995 4.84529 10.3307 5.99744 11.6279C6.56607 12.2682 7.15698 12.7954 7.64805 13.1587C7.89414 13.3407 8.10764 13.476 8.27466 13.5633C8.40413 13.6309 8.47471 13.653 8.49776 13.6602L8.49952 13.6608L8.50128 13.6602C8.52433 13.653 8.59492 13.6309 8.72441 13.5632C8.89145 13.476 9.10499 13.3407 9.35111 13.1587C9.84224 12.7954 10.4332 12.2682 11.002 11.6279C12.1543 10.3307 13.1364 8.65992 13.1364 7.01585C13.1364 4.42755 11.0565 2.33594 8.49952 2.33594ZM2.86328 7.01585C2.86328 3.88326 5.38231 1.33594 8.49952 1.33594C11.6166 1.33594 14.1364 3.88318 14.1364 7.01585C14.1364 9.02565 12.9605 10.9288 11.7496 12.292C11.1367 12.982 10.4947 13.5566 9.94576 13.9627C9.67182 14.1653 9.4135 14.3315 9.18739 14.4496C8.98557 14.555 8.73387 14.6637 8.49952 14.6637C8.26515 14.6637 8.01346 14.555 7.81165 14.4496C7.58556 14.3315 7.32726 14.1653 7.05335 13.9626C6.50443 13.5566 5.86258 12.982 5.24976 12.292C4.03898 10.9288 2.86328 9.02562 2.86328 7.01585Z" fill="#F9F9F9"/>
</g>
</g>
</svg>
