<svg width="21" height="20" viewBox="0 0 21 20" fill="none" xmlns="http://www.w3.org/2000/svg">
<g id="Frame">
<g id="Group 1321316525">
<path id="Rectangle 3466592" d="M5.08203 14.3737C5.08203 13.4532 5.82822 12.707 6.7487 12.707H14.2487C15.1692 12.707 15.9154 13.4532 15.9154 14.3737V14.3737C15.9154 15.2942 15.1692 16.0404 14.2487 16.0404H6.7487C5.82822 16.0404 5.08203 15.2942 5.08203 14.3737V14.3737Z" stroke="#25304B" stroke-width="1.25"/>
<path id="Rectangle 3466596" d="M17.168 12.7077V3.33268C17.168 2.75739 17.6343 2.29102 18.2096 2.29102V2.29102" stroke="#25304B" stroke-width="1.25" stroke-linecap="round" stroke-linejoin="round"/>
<path id="Rectangle 3466594" d="M14.6654 12.916V3.54102C14.6654 2.85066 14.1057 2.29102 13.4154 2.29102H7.58203C6.89168 2.29102 6.33203 2.85066 6.33203 3.54102V12.916" stroke="#25304B" stroke-width="1.25" stroke-linejoin="round"/>
<path id="Line 101" d="M6.95703 16.041L6.95703 17.7077" stroke="#25304B" stroke-width="1.25" stroke-linecap="round"/>
<path id="Line 102" d="M14.043 17.707L14.043 16.0404" stroke="#25304B" stroke-width="1.25" stroke-linecap="round"/>
<path id="Vector 2633" d="M8.41797 2.5V4.58333C8.41797 5.27369 8.97761 5.83333 9.66797 5.83333H11.3346C12.025 5.83333 12.5846 5.27369 12.5846 4.58333V2.5" stroke="#25304B" stroke-width="1.25" stroke-linejoin="round"/>
</g>
<path id="Line 805" d="M2.78906 16.666L5.28906 15.2077" stroke="#25304B" stroke-width="1.25" stroke-linecap="round"/>
<path id="Line 806" d="M2.78906 3.33398L6.33073 5.41732" stroke="#25304B" stroke-width="1.25" stroke-linecap="round"/>
</g>
</svg>
