<svg width="21" height="20" viewBox="0 0 21 20" fill="none" xmlns="http://www.w3.org/2000/svg">
<path fill-rule="evenodd" clip-rule="evenodd" d="M16.125 7.08366C16.125 5.35777 14.7259 3.95866 13 3.95866H8C6.27411 3.95866 4.875 5.35777 4.875 7.08366V13.3337C4.875 15.0595 6.27411 16.4587 8 16.4587H13C14.7259 16.4587 16.125 15.0595 16.125 13.3337V7.08366ZM13 5.20866C14.0355 5.20866 14.875 6.04812 14.875 7.08366V13.3337C14.875 14.3692 14.0355 15.2087 13 15.2087H8C6.96447 15.2087 6.125 14.3692 6.125 13.3337V7.08366C6.125 6.04812 6.96447 5.20866 8 5.20866H13Z" fill="black"/>
<path fill-rule="evenodd" clip-rule="evenodd" d="M12.7917 15.2087V16.4587C12.7917 16.8038 12.5118 17.0837 12.1667 17.0837H8.83333C8.48816 17.0837 8.20833 16.8038 8.20833 16.4587V15.2087H6.95833V16.4587C6.95833 17.4942 7.7978 18.3337 8.83333 18.3337H12.1667C13.2022 18.3337 14.0417 17.4942 14.0417 16.4587V15.2087H12.7917Z" fill="black"/>
<path fill-rule="evenodd" clip-rule="evenodd" d="M13.4167 2.29199C13.4167 1.94681 13.1368 1.66699 12.7917 1.66699H8.20833C7.86316 1.66699 7.58333 1.94681 7.58333 2.29199C7.58333 2.63717 7.86316 2.91699 8.20833 2.91699H12.7917C13.1368 2.91699 13.4167 2.63717 13.4167 2.29199Z" fill="black"/>
<path fill-rule="evenodd" clip-rule="evenodd" d="M12.5833 4.16699V2.50033L11.3333 2.50033V4.16699H12.5833Z" fill="black"/>
<path fill-rule="evenodd" clip-rule="evenodd" d="M9.66667 4.16699V2.50033L8.41667 2.50033V4.16699H9.66667Z" fill="black"/>
<path fill-rule="evenodd" clip-rule="evenodd" d="M10.5 8.95866C11.0753 8.95866 11.5417 9.42503 11.5417 10.0003C11.5417 10.5756 11.0753 11.042 10.5 11.042C9.9247 11.042 9.45833 10.5756 9.45833 10.0003C9.45833 9.42503 9.9247 8.95866 10.5 8.95866ZM12.7917 10.0003C12.7917 8.73467 11.7657 7.70866 10.5 7.70866C9.23435 7.70866 8.20833 8.73467 8.20833 10.0003C8.20833 11.266 9.23435 12.292 10.5 12.292C11.7657 12.292 12.7917 11.266 12.7917 10.0003Z" fill="black"/>
</svg>
