<svg xmlns="http://www.w3.org/2000/svg" width="20" height="20" viewBox="0 0 20 20" fill="none">
  <path fill-rule="evenodd" clip-rule="evenodd" d="M10.0003 2.91602C6.08831 2.91602 2.91699 6.08733 2.91699 9.99935C2.91699 13.9114 6.08831 17.0827 10.0003 17.0827C13.9123 17.0827 17.0837 13.9114 17.0837 9.99935C17.0837 6.08733 13.9123 2.91602 10.0003 2.91602ZM1.66699 9.99935C1.66699 5.39698 5.39795 1.66602 10.0003 1.66602C14.6027 1.66602 18.3337 5.39698 18.3337 9.99935C18.3337 14.6017 14.6027 18.3327 10.0003 18.3327C5.39795 18.3327 1.66699 14.6017 1.66699 9.99935Z" fill="#218946"/>
  <path fill-rule="evenodd" clip-rule="evenodd" d="M13.3551 7.47025C13.6013 7.71219 13.6047 8.10791 13.3628 8.3541L9.26793 12.5208C9.15043 12.6403 8.98981 12.7077 8.82217 12.7077C8.65452 12.7077 8.4939 12.6403 8.3764 12.5208L6.22122 10.3278C5.97928 10.0816 5.98272 9.68588 6.22891 9.44393C6.4751 9.20199 6.87081 9.20543 7.11276 9.45162L8.82217 11.191L12.4712 7.47793C12.7132 7.23174 13.1089 7.2283 13.3551 7.47025Z" fill="#218946"/>
</svg>