<svg width="10" height="10" viewBox="0 0 24 24" fill="none" xmlns="http://www.w3.org/2000/svg">
<path fill-rule="evenodd" clip-rule="evenodd" d="M11.25 20.25L11.25 3.75C11.25 3.33579 11.5858 3 12 3C12.4142 3 12.75 3.33579 12.75 3.75L12.75 20.25C12.75 20.6642 12.4142 21 12 21C11.5858 21 11.25 20.6642 11.25 20.25Z" fill="#25304B"/>
<path fill-rule="evenodd" clip-rule="evenodd" d="M3.75 11.25L20.25 11.25C20.6642 11.25 21 11.5858 21 12C21 12.4142 20.6642 12.75 20.25 12.75L3.75 12.75C3.33579 12.75 3 12.4142 3 12C3 11.5858 3.33579 11.25 3.75 11.25Z" fill="#25304B"/>
<path fill-rule="evenodd" clip-rule="evenodd" d="M5.63604 17.3033L17.3033 5.63604C17.5962 5.34315 18.0711 5.34315 18.364 5.63604C18.6569 5.92893 18.6569 6.40381 18.364 6.6967L6.6967 18.364C6.40381 18.6569 5.92893 18.6569 5.63604 18.364C5.34314 18.0711 5.34315 17.5962 5.63604 17.3033Z" fill="#25304B"/>
<path fill-rule="evenodd" clip-rule="evenodd" d="M6.6967 5.63604L18.364 17.3033C18.6569 17.5962 18.6569 18.0711 18.364 18.364C18.0711 18.6569 17.5962 18.6569 17.3033 18.364L5.63604 6.6967C5.34315 6.40381 5.34315 5.92893 5.63604 5.63604C5.92893 5.34314 6.40381 5.34315 6.6967 5.63604Z" fill="#25304B"/>
</svg>
