<svg width="14" height="14" viewBox="0 0 14 14" fill="none" xmlns="http://www.w3.org/2000/svg">
<path id="Vector" d="M4.04452 8.908L8.55337 4.36594C8.65302 4.26556 8.78657 4.20698 8.92463 4.20311C9.0627 4.19924 9.19398 4.25038 9.28958 4.34528C9.38519 4.44019 9.43729 4.57109 9.43443 4.70918C9.43157 4.84727 9.37398 4.98125 9.27433 5.08163L4.76548 9.62369C4.66583 9.72408 4.53228 9.78265 4.39421 9.78653C4.25615 9.7904 4.12487 9.73926 4.02926 9.64435C3.93366 9.54945 3.88156 9.41855 3.88442 9.28046C3.88728 9.14237 3.94487 9.00839 4.04452 8.908ZM7.33462 9.91956L5.45593 11.8121C4.95767 12.314 4.28993 12.6069 3.59959 12.6262C2.90925 12.6456 2.25287 12.3899 1.77484 11.9154C1.29681 11.4409 1.0363 10.7864 1.0506 10.0959C1.06491 9.40544 1.35286 8.73556 1.85112 8.23363L3.72981 6.34111C3.82946 6.24072 3.88705 6.10675 3.88991 5.96866C3.89277 5.83056 3.84067 5.69967 3.74506 5.60476C3.64946 5.50985 3.51818 5.45871 3.38011 5.46259C3.24205 5.46646 3.1085 5.52503 3.00885 5.62542L1.13016 7.51795C0.432598 8.22065 0.0294607 9.15848 0.00943324 10.1251C-0.0105944 11.0918 0.354129 12.0081 1.02337 12.6724C1.69261 13.3367 2.61154 13.6947 3.57801 13.6676C4.54449 13.6405 5.47933 13.2305 6.17689 12.5278L8.05558 10.6352C8.15523 10.5349 8.21282 10.4009 8.21568 10.2628C8.21854 10.1247 8.16644 9.9938 8.07084 9.8989C7.97523 9.80399 7.84395 9.75285 7.70589 9.75672C7.56782 9.7606 7.43427 9.81917 7.33462 9.91956ZM7.14195 1.46186L5.26327 3.35439C5.16362 3.45478 5.10603 3.58875 5.10316 3.72684C5.1003 3.86494 5.15241 3.99583 5.24801 4.09074C5.34362 4.18565 5.47489 4.23679 5.61296 4.23291C5.75103 4.22904 5.88458 4.17047 5.98423 4.07008L7.86292 2.17755C8.36117 1.67562 9.02892 1.38276 9.71926 1.36339C10.4096 1.34402 11.066 1.59972 11.544 2.07425C12.022 2.54878 12.2826 3.20327 12.2682 3.89373C12.2539 4.5842 11.966 5.25407 11.4677 5.756L9.58904 7.64853C9.48939 7.74891 9.4318 7.88289 9.42894 8.02098C9.42607 8.15907 9.47818 8.28997 9.57378 8.38488C9.66939 8.47978 9.80067 8.53093 9.93873 8.52705C10.0768 8.52318 10.2104 8.4646 10.31 8.36422L12.1887 6.47169C12.8862 5.76899 13.2894 4.83116 13.3094 3.86452C13.3294 2.89787 12.9647 1.98159 12.2955 1.31724C11.6262 0.652899 10.7073 0.29491 9.74083 0.322033C8.77436 0.349154 7.83952 0.759163 7.14195 1.46186Z" fill="#7A85A0"/>
</svg>
