<svg width="20" height="20" viewBox="0 0 20 20" fill="none" xmlns="http://www.w3.org/2000/svg">
<g id="Frame">
<g id="Vector">
<path fill-rule="evenodd" clip-rule="evenodd" d="M1.66553 7.35972C1.66553 5.63383 3.06464 4.23472 4.79053 4.23472H15.2096C16.9355 4.23472 18.3346 5.63383 18.3346 7.35972V14.3756C18.3346 16.1015 16.9355 17.5006 15.2096 17.5006H4.79053C3.06464 17.5006 1.66553 16.1015 1.66553 14.3756V7.35972ZM4.79053 5.48472C3.75499 5.48472 2.91553 6.32419 2.91553 7.35972V14.3756C2.91553 15.4112 3.75499 16.2506 4.79053 16.2506H15.2096C16.2452 16.2506 17.0846 15.4112 17.0846 14.3756V7.35972C17.0846 6.32419 16.2452 5.48472 15.2096 5.48472H4.79053Z" fill="black"/>
<path fill-rule="evenodd" clip-rule="evenodd" d="M6.25008 4.37337C6.25008 2.8776 7.46264 1.66504 8.95841 1.66504H11.0417C12.5375 1.66504 13.7501 2.8776 13.7501 4.37337V4.85989H12.5001V4.37337C12.5001 3.56796 11.8472 2.91504 11.0417 2.91504H8.95841C8.153 2.91504 7.50008 3.56796 7.50008 4.37337V4.85989H6.25008V4.37337Z" fill="black"/>
<path fill-rule="evenodd" clip-rule="evenodd" d="M10.0001 7.91626C10.3453 7.91626 10.6251 8.19608 10.6251 8.54126V13.1246C10.6251 13.4698 10.3453 13.7496 10.0001 13.7496C9.6549 13.7496 9.37508 13.4698 9.37508 13.1246V8.54126C9.37508 8.19608 9.6549 7.91626 10.0001 7.91626Z" fill="black"/>
<path fill-rule="evenodd" clip-rule="evenodd" d="M6.66675 7.91626C7.01193 7.91626 7.29175 8.19608 7.29175 8.54126L7.29175 13.1246C7.29175 13.4698 7.01193 13.7496 6.66675 13.7496C6.32157 13.7496 6.04175 13.4698 6.04175 13.1246L6.04175 8.54126C6.04175 8.19608 6.32157 7.91626 6.66675 7.91626Z" fill="black"/>
<path fill-rule="evenodd" clip-rule="evenodd" d="M13.3334 7.91626C13.6786 7.91626 13.9584 8.19608 13.9584 8.54126V13.1246C13.9584 13.4698 13.6786 13.7496 13.3334 13.7496C12.9882 13.7496 12.7084 13.4698 12.7084 13.1246V8.54126C12.7084 8.19608 12.9882 7.91626 13.3334 7.91626Z" fill="black"/>
</g>
</g>
</svg>
