<svg width="20" height="20" viewBox="0 0 20 20" fill="none" xmlns="http://www.w3.org/2000/svg">
<g id="Frame">
<g id="Vector">
<path fill-rule="evenodd" clip-rule="evenodd" d="M13.3548 7.88716C13.601 8.12911 13.6045 8.52482 13.3625 8.77101L9.26769 12.9377C9.15018 13.0572 8.98956 13.1246 8.82192 13.1246C8.65428 13.1246 8.49366 13.0572 8.37615 12.9377L6.22098 10.7447C5.97903 10.4985 5.98247 10.1028 6.22867 9.86084C6.47486 9.6189 6.87057 9.62234 7.11252 9.86853L8.82192 11.6079L12.471 7.89484C12.7129 7.64865 13.1086 7.64521 13.3548 7.88716Z" fill="#25304B"/>
<path fill-rule="evenodd" clip-rule="evenodd" d="M1.66553 7.35972C1.66553 5.63383 3.06464 4.23472 4.79053 4.23472H15.2096C16.9355 4.23472 18.3346 5.63383 18.3346 7.35972V14.3756C18.3346 16.1015 16.9355 17.5006 15.2096 17.5006H4.79053C3.06464 17.5006 1.66553 16.1015 1.66553 14.3756V7.35972ZM4.79053 5.48472C3.75499 5.48472 2.91553 6.32419 2.91553 7.35972V14.3756C2.91553 15.4112 3.75499 16.2506 4.79053 16.2506H15.2096C16.2452 16.2506 17.0846 15.4112 17.0846 14.3756V7.35972C17.0846 6.32419 16.2452 5.48472 15.2096 5.48472H4.79053Z" fill="#25304B"/>
<path fill-rule="evenodd" clip-rule="evenodd" d="M6.25008 4.37337C6.25008 2.8776 7.46264 1.66504 8.95841 1.66504H11.0417C12.5375 1.66504 13.7501 2.8776 13.7501 4.37337V4.85989H12.5001V4.37337C12.5001 3.56796 11.8472 2.91504 11.0417 2.91504H8.95841C8.153 2.91504 7.50008 3.56796 7.50008 4.37337V4.85989H6.25008V4.37337Z" fill="#25304B"/>
</g>
</g>
</svg>
