<svg width="16" height="16" viewBox="0 0 16 16" fill="none" xmlns="http://www.w3.org/2000/svg">
<g id="Frame">
<g id="Vector">
<path fill-rule="evenodd" clip-rule="evenodd" d="M1.33691 8.00334C1.33691 4.32144 4.32168 1.33667 8.00358 1.33667C11.6855 1.33667 14.6702 4.32144 14.6702 8.00334C14.6702 11.6852 11.6855 14.67 8.00358 14.67C4.32168 14.67 1.33691 11.6852 1.33691 8.00334Z" fill="black"/>
<path fill-rule="evenodd" clip-rule="evenodd" d="M8.00033 4.16675C8.19065 4.16675 8.36446 4.2748 8.44869 4.44546L9.312 6.19472L11.2424 6.47522C11.4308 6.50259 11.5872 6.63451 11.646 6.81552C11.7049 6.99652 11.6558 7.19522 11.5195 7.32807L10.1227 8.68967L10.4524 10.6123C10.4846 10.7999 10.4075 10.9894 10.2535 11.1013C10.0995 11.2132 9.8954 11.2279 9.72694 11.1394L8.00033 10.2316L6.27371 11.1394C6.10525 11.2279 5.90112 11.2132 5.74715 11.1013C5.59318 10.9894 5.51606 10.7999 5.54824 10.6123L5.87799 8.68967L4.48113 7.32807C4.34484 7.19522 4.2958 6.99652 4.35461 6.81552C4.41342 6.63451 4.56989 6.50259 4.75824 6.47522L6.68865 6.19472L7.55196 4.44546C7.63619 4.2748 7.81 4.16675 8.00033 4.16675Z" fill="white"/>
</g>
</g>
</svg>
