<svg width="20" height="20" viewBox="0 0 20 20" fill="none" xmlns="http://www.w3.org/2000/svg">
<g id="Placeholder - Contained Outline">
<path id="Vector" fill-rule="evenodd" clip-rule="evenodd" d="M12.6463 7.99922C12.8904 8.2433 12.8904 8.63905 12.6463 8.88313L8.65295 12.8764C8.40888 13.1205 8.01318 13.1205 7.7691 12.8764C7.52502 12.6324 7.52501 12.2366 7.76909 11.9926L11.7624 7.99923C12.0065 7.75515 12.4022 7.75514 12.6463 7.99922Z" fill="#4B5772"/>
<path id="Vector_2" fill-rule="evenodd" clip-rule="evenodd" d="M7.76621 7.99753C8.01031 7.75349 8.40603 7.75353 8.65008 7.99762L12.6468 11.9951C12.8908 12.2392 12.8908 12.6349 12.6467 12.879C12.4026 13.1231 12.0068 13.123 11.7628 12.8789L7.76611 8.88141C7.52206 8.63731 7.52211 8.24158 7.76621 7.99753Z" fill="#25304B"/>
<path id="Vector_3" fill-rule="evenodd" clip-rule="evenodd" d="M1.875 10.4456C1.875 5.84319 5.60596 2.11223 10.2083 2.11223C14.8107 2.11223 18.5417 5.84319 18.5417 10.4456C18.5417 15.0479 14.8107 18.7789 10.2083 18.7789C5.60596 18.7789 1.875 15.0479 1.875 10.4456ZM10.2083 3.36223C6.29632 3.36223 3.125 6.53355 3.125 10.4456C3.125 14.3576 6.29632 17.5289 10.2083 17.5289C14.1203 17.5289 17.2917 14.3576 17.2917 10.4456C17.2917 6.53355 14.1203 3.36223 10.2083 3.36223Z" fill="#25304B"/>
</g>
</svg>
