<svg width="42" height="42" viewBox="0 0 32 32" fill="none" xmlns="http://www.w3.org/2000/svg">
<circle cx="16" cy="16" r="16" fill="#000099"/>
<path d="M10.805 21.6606C11.0619 21.6606 11.2701 21.4524 11.2701 21.1955C11.2701 20.9387 11.0619 20.7305 10.805 20.7305C10.5482 20.7305 10.34 20.9387 10.34 21.1955C10.34 21.4524 10.5482 21.6606 10.805 21.6606Z" fill="white"/>
<path d="M21.2495 11.2162C21.5063 11.2162 21.7145 11.008 21.7145 10.7512C21.7145 10.4943 21.5063 10.2861 21.2495 10.2861C20.9926 10.2861 20.7844 10.4943 20.7844 10.7512C20.7844 11.008 20.9926 11.2162 21.2495 11.2162Z" fill="white"/>
<path d="M19.8995 11.2162C20.1564 11.2162 20.3646 11.008 20.3646 10.7512C20.3646 10.4943 20.1564 10.2861 19.8995 10.2861C19.6427 10.2861 19.4344 10.4943 19.4344 10.7512C19.4344 11.008 19.6427 11.2162 19.8995 11.2162Z" fill="white"/>
<path d="M21.2495 12.7407C21.5063 12.7407 21.7145 12.5324 21.7145 12.2756C21.7145 12.0188 21.5063 11.8105 21.2495 11.8105C20.9926 11.8105 20.7844 12.0188 20.7844 12.2756C20.7844 12.5324 20.9926 12.7407 21.2495 12.7407Z" fill="white"/>
<path d="M18.3747 11.2162C18.6316 11.2162 18.8398 11.008 18.8398 10.7512C18.8398 10.4943 18.6316 10.2861 18.3747 10.2861C18.1179 10.2861 17.9097 10.4943 17.9097 10.7512C17.9097 11.008 18.1179 11.2162 18.3747 11.2162Z" fill="white"/>
<path d="M15.3252 11.2162C15.582 11.2162 15.7902 11.008 15.7902 10.7512C15.7902 10.4943 15.582 10.2861 15.3252 10.2861C15.0683 10.2861 14.8601 10.4943 14.8601 10.7512C14.8601 11.008 15.0683 11.2162 15.3252 11.2162Z" fill="white"/>
<path d="M16.8499 11.2162C17.1068 11.2162 17.315 11.008 17.315 10.7512C17.315 10.4943 17.1068 10.2861 16.8499 10.2861C16.5931 10.2861 16.3849 10.4943 16.3849 10.7512C16.3849 11.008 16.5931 11.2162 16.8499 11.2162Z" fill="white"/>
<path d="M13.8004 11.2162C14.0572 11.2162 14.2654 11.008 14.2654 10.7512C14.2654 10.4943 14.0572 10.2861 13.8004 10.2861C13.5435 10.2861 13.3353 10.4943 13.3353 10.7512C13.3353 11.008 13.5435 11.2162 13.8004 11.2162Z" fill="white"/>
<path d="M12.2756 11.2162C12.5324 11.2162 12.7407 11.008 12.7407 10.7512C12.7407 10.4943 12.5324 10.2861 12.2756 10.2861C12.0188 10.2861 11.8105 10.4943 11.8105 10.7512C11.8105 11.008 12.0188 11.2162 12.2756 11.2162Z" fill="white"/>
<path d="M10.7508 11.2162C11.0077 11.2162 11.2159 11.008 11.2159 10.7512C11.2159 10.4943 11.0077 10.2861 10.7508 10.2861C10.494 10.2861 10.2858 10.4943 10.2858 10.7512C10.2858 11.008 10.494 11.2162 10.7508 11.2162Z" fill="white"/>
<path d="M21.2496 14.2661C21.5064 14.2661 21.7147 14.0578 21.7147 13.801C21.7147 13.5442 21.5064 13.3359 21.2496 13.3359C20.9928 13.3359 20.7845 13.5442 20.7845 13.801C20.7845 14.0578 20.9928 14.2661 21.2496 14.2661Z" fill="white"/>
<path d="M21.2496 15.7905C21.5064 15.7905 21.7147 15.5823 21.7147 15.3254C21.7147 15.0686 21.5064 14.8604 21.2496 14.8604C20.9928 14.8604 20.7845 15.0686 20.7845 15.3254C20.7845 15.5823 20.9928 15.7905 21.2496 15.7905Z" fill="white"/>
<path d="M21.2496 17.3159C21.5064 17.3159 21.7147 17.1076 21.7147 16.8508C21.7147 16.594 21.5064 16.3857 21.2496 16.3857C20.9928 16.3857 20.7845 16.594 20.7845 16.8508C20.7845 17.1076 20.9928 17.3159 21.2496 17.3159Z" fill="white"/>
<path d="M21.2496 18.8403C21.5064 18.8403 21.7147 18.6321 21.7147 18.3752C21.7147 18.1184 21.5064 17.9102 21.2496 17.9102C20.9928 17.9102 20.7845 18.1184 20.7845 18.3752C20.7845 18.6321 20.9928 18.8403 21.2496 18.8403Z" fill="white"/>
<path d="M21.2496 21.7143C21.5064 21.7143 21.7147 21.5061 21.7147 21.2492C21.7147 20.9924 21.5064 20.7842 21.2496 20.7842C20.9928 20.7842 20.7845 20.9924 20.7845 21.2492C20.7845 21.5061 20.9928 21.7143 21.2496 21.7143Z" fill="white"/>
<path d="M21.2496 20.3647C21.5064 20.3647 21.7147 20.1565 21.7147 19.8996C21.7147 19.6428 21.5064 19.4346 21.2496 19.4346C20.9928 19.4346 20.7845 19.6428 20.7845 19.8996C20.7845 20.1565 20.9928 20.3647 21.2496 20.3647Z" fill="white"/>
<path d="M18.6792 13.8412C18.936 13.8412 19.1442 13.633 19.1442 13.3762C19.1442 13.1193 18.936 12.9111 18.6792 12.9111C18.4223 12.9111 18.2141 13.1193 18.2141 13.3762C18.2141 13.633 18.4223 13.8412 18.6792 13.8412Z" fill="white"/>
<path d="M13.2882 19.2319C13.545 19.2319 13.7532 19.0237 13.7532 18.7668C13.7532 18.51 13.545 18.3018 13.2882 18.3018C13.0313 18.3018 12.8231 18.51 12.8231 18.7668C12.8231 19.0237 13.0313 19.2319 13.2882 19.2319Z" fill="white"/>
<path d="M15.381 17.1433C15.6387 17.1433 15.8477 16.9344 15.8477 16.6766C15.8477 16.4189 15.6387 16.21 15.381 16.21C15.1232 16.21 14.9143 16.4189 14.9143 16.6766C14.9143 16.9344 15.1232 17.1433 15.381 17.1433Z" fill="white"/>
<path d="M17.5802 14.9441C17.838 14.9441 18.0469 14.7352 18.0469 14.4774C18.0469 14.2197 17.838 14.0107 17.5802 14.0107C17.3225 14.0107 17.1135 14.2197 17.1135 14.4774C17.1135 14.7352 17.3225 14.9441 17.5802 14.9441Z" fill="white"/>
<path d="M12.1893 20.3357C12.4471 20.3357 12.656 20.1268 12.656 19.869C12.656 19.6113 12.4471 19.4023 12.1893 19.4023C11.9316 19.4023 11.7227 19.6113 11.7227 19.869C11.7227 20.1268 11.9316 20.3357 12.1893 20.3357Z" fill="white"/>
<path d="M16.8106 15.2472C16.9928 15.4294 16.9928 15.7245 16.8106 15.9073C16.6284 16.0901 16.3333 16.0895 16.1505 15.9073C15.9678 15.7251 15.9683 15.43 16.1505 15.2472C16.3328 15.0644 16.6278 15.065 16.8106 15.2472Z" fill="white"/>
<path d="M20.1101 11.9474C20.2923 12.1296 20.2923 12.4247 20.1101 12.6075C19.9279 12.7903 19.6328 12.7897 19.45 12.6075C19.2678 12.4253 19.2678 12.1302 19.45 11.9474C19.6322 11.7646 19.9273 11.7652 20.1101 11.9474Z" fill="white"/>
<path d="M14.7191 17.339C14.9013 17.5212 14.9013 17.8163 14.7191 17.9991C14.5369 18.1819 14.2418 18.1813 14.059 17.9991C13.8768 17.8169 13.8768 17.5218 14.059 17.339C14.2412 17.1562 14.5363 17.1568 14.7191 17.339Z" fill="white"/>
</svg>
