<svg width="74" height="74" viewBox="0 0 74 74" fill="none" xmlns="http://www.w3.org/2000/svg">
<g filter="url(#filter0_bd_2178_5474)">
<rect x="17" y="17" width="40" height="40" rx="20" fill="white"/>
</g>
<path d="M43.2556 38.2573C43.1928 38.3218 42.9557 38.5973 42.7349 38.824C41.4403 40.2495 38.0632 42.5829 36.2956 43.2951C36.0271 43.4095 35.3484 43.6518 34.9858 43.6673C34.6384 43.6673 34.3071 43.5873 33.9911 43.4251C33.5971 43.1984 33.281 42.8418 33.1078 42.4207C32.9963 42.1284 32.8231 41.254 32.8231 41.2384C32.6499 40.2818 32.5547 38.7273 32.5547 37.0095C32.5547 35.3729 32.6499 33.8818 32.7917 32.9107C32.808 32.8951 32.9812 31.8084 33.1706 31.4362C33.518 30.7562 34.1967 30.334 34.923 30.334H34.9858C35.4588 30.3507 36.4536 30.7729 36.4536 30.7884C38.1259 31.5018 41.4252 33.7207 42.7511 35.1951C42.7511 35.1951 43.1246 35.574 43.2869 35.8107C43.5402 36.1507 43.6658 36.5718 43.6658 36.9929C43.6658 37.4629 43.524 37.9007 43.2556 38.2573Z" fill="#000099"/>
<defs>
<filter id="filter0_bd_2178_5474" x="-4.3" y="-4.3" width="82.6" height="82.6" filterUnits="userSpaceOnUse" color-interpolation-filters="sRGB">
<feFlood flood-opacity="0" result="BackgroundImageFix"/>
<feGaussianBlur in="BackgroundImageFix" stdDeviation="10.65"/>
<feComposite in2="SourceAlpha" operator="in" result="effect1_backgroundBlur_2178_5474"/>
<feColorMatrix in="SourceAlpha" type="matrix" values="0 0 0 0 0 0 0 0 0 0 0 0 0 0 0 0 0 0 127 0" result="hardAlpha"/>
<feMorphology radius="3" operator="dilate" in="SourceAlpha" result="effect2_dropShadow_2178_5474"/>
<feOffset/>
<feGaussianBlur stdDeviation="6.95"/>
<feComposite in2="hardAlpha" operator="out"/>
<feColorMatrix type="matrix" values="0 0 0 0 0.528299 0 0 0 0 0.655192 0 0 0 0 0.745833 0 0 0 0.04 0"/>
<feBlend mode="normal" in2="effect1_backgroundBlur_2178_5474" result="effect2_dropShadow_2178_5474"/>
<feBlend mode="normal" in="SourceGraphic" in2="effect2_dropShadow_2178_5474" result="shape"/>
</filter>
</defs>
</svg>
