<svg width="17" height="16" viewBox="0 0 17 16" fill="none" xmlns="http://www.w3.org/2000/svg">
<path fill-rule="evenodd" clip-rule="evenodd" d="M5.89581 9.64605L12.7291 2.81247C12.9243 2.6172 13.2409 2.6172 13.4362 2.81245C13.6314 3.00771 13.6314 3.32429 13.4362 3.51956L6.60293 10.3531C6.40767 10.5484 6.09109 10.5484 5.89582 10.3532C5.70056 10.1579 5.70055 9.84132 5.89581 9.64605Z" fill="white"/>
<path fill-rule="evenodd" clip-rule="evenodd" d="M11.5826 4.66608V11.8329C11.5826 12.1091 11.3587 12.3329 11.0826 12.3329C10.8064 12.3329 10.5826 12.1091 10.5826 11.8329V5.6661L4.41591 5.66625C4.13977 5.66626 3.91591 5.44241 3.9159 5.16627C3.91589 4.89012 4.13974 4.66626 4.41589 4.66625L11.5826 4.66608Z" fill="white"/>
<path fill-rule="evenodd" clip-rule="evenodd" d="M6.91602 9.3329V12.8329C6.91602 13.109 6.69216 13.3329 6.41602 13.3329C6.13987 13.3329 5.91602 13.109 5.91602 12.8329V10.3329H3.41602C3.13987 10.3329 2.91602 10.109 2.91602 9.8329C2.91602 9.55675 3.13987 9.3329 3.41602 9.3329H6.91602Z" fill="white"/>
</svg>
