<svg width="20" height="20" viewBox="0 0 20 20" fill="none" xmlns="http://www.w3.org/2000/svg">
<g id="bucket-list">
<g id="Vector">
<path fill-rule="evenodd" clip-rule="evenodd" d="M9.79 10.0001C9.79 9.6549 10.0698 9.37508 10.415 9.37508H14.3733C14.7185 9.37508 14.9983 9.6549 14.9983 10.0001C14.9983 10.3453 14.7185 10.6251 14.3733 10.6251H10.415C10.0698 10.6251 9.79 10.3453 9.79 10.0001Z" fill="white"/>
<path fill-rule="evenodd" clip-rule="evenodd" d="M8.32982 8.69639C8.58959 8.92369 8.61592 9.31854 8.38862 9.57831L6.93028 11.245C6.81637 11.3752 6.65361 11.4523 6.48072 11.4581C6.30784 11.4638 6.1403 11.3977 6.01798 11.2754L5.18465 10.442C4.94057 10.1979 4.94057 9.80222 5.18465 9.55814C5.42872 9.31406 5.82445 9.31406 6.06853 9.55814L6.42948 9.91909L7.4479 8.75518C7.6752 8.49541 8.07005 8.46909 8.32982 8.69639Z" fill="white"/>
<path fill-rule="evenodd" clip-rule="evenodd" d="M9.79 13.7501C9.79 13.4049 10.0698 13.1251 10.415 13.1251H14.3733C14.7185 13.1251 14.9983 13.4049 14.9983 13.7501C14.9983 14.0953 14.7185 14.3751 14.3733 14.3751H10.415C10.0698 14.3751 9.79 14.0953 9.79 13.7501Z" fill="white"/>
<path fill-rule="evenodd" clip-rule="evenodd" d="M8.32982 12.0297C8.58959 12.257 8.61592 12.6519 8.38862 12.9116L6.93028 14.5783C6.81637 14.7085 6.65361 14.7856 6.48072 14.7914C6.30784 14.7972 6.1403 14.731 6.01798 14.6087L5.18465 13.7754C4.94057 13.5313 4.94057 13.1356 5.18465 12.8915C5.42872 12.6474 5.82445 12.6474 6.06853 12.8915L6.42948 13.2524L7.4479 12.0885C7.6752 11.8287 8.07005 11.8024 8.32982 12.0297Z" fill="white"/>
<path fill-rule="evenodd" clip-rule="evenodd" d="M9.79 6.25008C9.79 5.9049 10.0698 5.62508 10.415 5.62508H14.3733C14.7185 5.62508 14.9983 5.9049 14.9983 6.25008C14.9983 6.59526 14.7185 6.87508 14.3733 6.87508H10.415C10.0698 6.87508 9.79 6.59526 9.79 6.25008Z" fill="white"/>
<path fill-rule="evenodd" clip-rule="evenodd" d="M8.32982 5.36305C8.58959 5.59036 8.61592 5.98521 8.38862 6.24498L6.93028 7.91165C6.81637 8.04183 6.65361 8.11898 6.48072 8.12474C6.30784 8.13049 6.1403 8.06434 6.01798 7.94202L5.18465 7.10869C4.94057 6.86461 4.94057 6.46888 5.18465 6.22481C5.42872 5.98073 5.82445 5.98073 6.06853 6.22481L6.42948 6.58575L7.4479 5.42185C7.6752 5.16208 8.07005 5.13575 8.32982 5.36305Z" fill="white"/>
<path fill-rule="evenodd" clip-rule="evenodd" d="M2.5 4.79175C2.5 3.06586 3.89911 1.66675 5.625 1.66675H14.3766C16.1025 1.66675 17.5016 3.06586 17.5016 4.79175V15.2084C17.5016 16.9343 16.1025 18.3334 14.3766 18.3334H5.625C3.89911 18.3334 2.5 16.9343 2.5 15.2084V4.79175ZM5.625 2.91675C4.58947 2.91675 3.75 3.75621 3.75 4.79175V15.2084C3.75 16.2439 4.58947 17.0834 5.625 17.0834H14.3766C15.4121 17.0834 16.2516 16.2439 16.2516 15.2084V4.79175C16.2516 3.75621 15.4121 2.91675 14.3766 2.91675H5.625Z" fill="white"/>
</g>
</g>
</svg>
