<svg width="20" height="20" viewBox="0 0 20 20" fill="none" xmlns="http://www.w3.org/2000/svg">
<g id="Frame">
<g id="Vector">
<path fill-rule="evenodd" clip-rule="evenodd" d="M3.33203 10.6931C3.33203 8.96717 4.73114 7.56805 6.45703 7.56805H13.5428C15.2687 7.56805 16.6678 8.96716 16.6678 10.6931V15.209C16.6678 16.9349 15.2687 18.334 13.5428 18.334H6.45703C4.73114 18.334 3.33203 16.9349 3.33203 15.209V10.6931ZM6.45703 8.81805C5.4215 8.81805 4.58203 9.65752 4.58203 10.6931V15.209C4.58203 16.2445 5.4215 17.084 6.45703 17.084H13.5428C14.5783 17.084 15.4178 16.2445 15.4178 15.209V10.6931C15.4178 9.65752 14.5783 8.81805 13.5428 8.81805H6.45703Z" fill="#25304B"/>
<path fill-rule="evenodd" clip-rule="evenodd" d="M6.24992 17.7089L6.24992 8.19295H7.49992L7.49992 17.7089H6.24992Z" fill="#25304B"/>
<path fill-rule="evenodd" clip-rule="evenodd" d="M7.08325 3.54004C7.08325 2.50451 7.92272 1.66504 8.95825 1.66504H11.0416C12.0771 1.66504 12.9166 2.50451 12.9166 3.54004V8.19322H11.6666V3.54004C11.6666 3.19486 11.3868 2.91504 11.0416 2.91504H8.95825C8.61307 2.91504 8.33325 3.19486 8.33325 3.54004V8.19322H7.08325V3.54004Z" fill="#25304B"/>
<path fill-rule="evenodd" clip-rule="evenodd" d="M12.4999 17.7089V8.19295H13.7499V17.7089H12.4999Z" fill="#25304B"/>
</g>
</g>
</svg>
