<svg width="16" height="16" viewBox="0 0 16 16" fill="none" xmlns="http://www.w3.org/2000/svg">
<path fill-rule="evenodd" clip-rule="evenodd" d="M1.33325 6.83325C1.33325 6.55711 1.55711 6.33325 1.83325 6.33325H14.1646C14.4408 6.33325 14.6646 6.55711 14.6646 6.83325C14.6646 7.10939 14.4408 7.33325 14.1646 7.33325H1.83325C1.55711 7.33325 1.33325 7.10939 1.33325 6.83325Z" fill="black"/>
<path fill-rule="evenodd" clip-rule="evenodd" d="M10.4982 1.33325C10.7744 1.33325 10.9982 1.55711 10.9982 1.83325V4.49992C10.9982 4.77606 10.7744 4.99992 10.4982 4.99992C10.2221 4.99992 9.99822 4.77606 9.99822 4.49992V1.83325C9.99822 1.55711 10.2221 1.33325 10.4982 1.33325Z" fill="black"/>
<path fill-rule="evenodd" clip-rule="evenodd" d="M5.51375 1.33325C5.78989 1.33325 6.01375 1.55711 6.01375 1.83325H5.01375C5.01375 1.55711 5.23761 1.33325 5.51375 1.33325ZM5.01375 1.83325V4.49992C5.01375 4.77606 5.23761 4.99992 5.51375 4.99992C5.78989 4.99992 6.01375 4.77606 6.01375 4.49992V1.83325H5.01375Z" fill="black"/>
<path fill-rule="evenodd" clip-rule="evenodd" d="M1.33325 5.16658C1.33325 3.78587 2.45254 2.66659 3.83325 2.66659H12.1666C13.5473 2.66659 14.6666 3.78587 14.6666 5.16658V12.1666C14.6666 13.5473 13.5473 14.6666 12.1666 14.6666H3.83325C2.45254 14.6666 1.33325 13.5473 1.33325 12.1666V5.16658ZM3.83325 3.66659C3.00482 3.66659 2.33325 4.33816 2.33325 5.16658V12.1666C2.33325 12.995 3.00482 13.6666 3.83325 13.6666H12.1666C12.995 13.6666 13.6666 12.995 13.6666 12.1666V5.16658C13.6666 4.33816 12.995 3.66659 12.1666 3.66659H3.83325Z" fill="black"/>
</svg>
