<svg width="20" height="20" viewBox="0 0 20 20" fill="none" xmlns="http://www.w3.org/2000/svg">
<g id="Customise_flight">
<g id="Vector">
<path fill-rule="evenodd" clip-rule="evenodd" d="M18.1422 12.8919C18.3863 13.136 18.3863 13.5317 18.1422 13.7758L13.7755 18.1424C13.5315 18.3865 13.1357 18.3865 12.8917 18.1424C12.6476 17.8983 12.6476 17.5026 12.8917 17.2585L17.2583 12.8919C17.5024 12.6478 17.8981 12.6478 18.1422 12.8919Z" fill="#4B5772"/>
<path fill-rule="evenodd" clip-rule="evenodd" d="M18.1422 18.1424C17.8981 18.3865 17.5024 18.3865 17.2583 18.1424L12.8917 13.7758C12.6476 13.5317 12.6476 13.136 12.8917 12.8919C13.1357 12.6479 13.5315 12.6479 13.7755 12.8919L18.1422 17.2586C18.3863 17.5026 18.3863 17.8984 18.1422 18.1424Z" fill="#4B5772"/>
<path fill-rule="evenodd" clip-rule="evenodd" d="M10.0003 2.92114C6.09044 2.92114 2.9209 6.09068 2.9209 10.0005C2.9209 13.6512 5.68475 16.6572 9.23377 17.0389C9.57696 17.0758 9.82526 17.384 9.78835 17.7272C9.75144 18.0704 9.44329 18.3187 9.1001 18.2817C4.92298 17.8325 1.6709 14.2967 1.6709 10.0005C1.6709 5.40033 5.40008 1.67114 10.0003 1.67114C14.2967 1.67114 17.8326 4.92359 18.2816 9.10104C18.3185 9.44424 18.0701 9.75236 17.7269 9.78924C17.3837 9.82612 17.0756 9.5778 17.0387 9.2346C16.6573 5.6853 13.6512 2.92114 10.0003 2.92114Z" fill="#4B5772"/>
<path fill-rule="evenodd" clip-rule="evenodd" d="M7.76233 11.3546L12.4749 6.64185C12.719 6.39777 13.1147 6.39776 13.3588 6.64183C13.6028 6.88591 13.6029 7.28163 13.3588 7.52572L8.64623 12.2385C8.40216 12.4826 8.00644 12.4826 7.76235 12.2385C7.51827 11.9944 7.51826 11.5987 7.76233 11.3546Z" fill="#4B5772"/>
<path fill-rule="evenodd" clip-rule="evenodd" d="M12.1624 7.8382V12.1415C12.1624 12.4866 11.8826 12.7665 11.5374 12.7665C11.1922 12.7665 10.9124 12.4866 10.9124 12.1415V9.08824L7.85931 9.08833C7.51413 9.08834 7.2343 8.80853 7.23429 8.46335C7.23428 8.11817 7.51409 7.83834 7.85927 7.83833L12.1624 7.8382Z" fill="#4B5772"/>
<path fill-rule="evenodd" clip-rule="evenodd" d="M8.94425 11.0568V13.7508C8.94425 14.096 8.66443 14.3758 8.31925 14.3758C7.97408 14.3758 7.69425 14.096 7.69425 13.7508V12.3068H6.2503C5.90513 12.3068 5.6253 12.027 5.6253 11.6818C5.6253 11.3366 5.90513 11.0568 6.2503 11.0568H8.94425Z" fill="#4B5772"/>
</g>
</g>
</svg>
