<svg width="16" height="16" viewBox="0 0 16 16" fill="none" xmlns="http://www.w3.org/2000/svg">
<g id="Frame 1321316513">
<g id="Vector">
<path fill-rule="evenodd" clip-rule="evenodd" d="M8.00164 5.70996C8.27779 5.70996 8.50164 5.93382 8.50164 6.20996V8.94329C8.50164 9.21943 8.27779 9.44329 8.00164 9.44329C7.7255 9.44329 7.50164 9.21943 7.50164 8.94329V6.20996C7.50164 5.93382 7.7255 5.70996 8.00164 5.70996Z" fill="#967"/>
<path fill-rule="evenodd" clip-rule="evenodd" d="M7.49676 11C7.49676 10.7239 7.72062 10.5 7.99676 10.5H8.00343C8.27957 10.5 8.50343 10.7239 8.50343 11C8.50343 11.2761 8.27957 11.5 8.00343 11.5H7.99676C7.72062 11.5 7.49676 11.2761 7.49676 11Z" fill="#967"/>
<path fill-rule="evenodd" clip-rule="evenodd" d="M8.72266 3.41205C8.40147 2.85743 7.60055 2.85785 7.27994 3.41281L2.46361 11.7498C2.14267 12.3054 2.54359 13 3.18519 13H12.8296C13.4716 13 13.8724 12.3046 13.5507 11.749L8.72266 3.41205ZM6.41405 2.91258C7.11938 1.69167 8.8814 1.69074 9.58802 2.91091L14.4161 11.2479C15.1239 12.4701 14.2419 14 12.8296 14H3.18519C1.77367 14 0.891638 12.4718 1.59772 11.2496L6.41405 2.91258Z" fill="#967"/>
</g>
</g>
</svg>
