<svg width="20" height="20" viewBox="0 0 20 20" fill="none" xmlns="http://www.w3.org/2000/svg">
<g id="Change_flight">
<g id="Vector">
<path fill-rule="evenodd" clip-rule="evenodd" d="M10.0003 2.92114C6.09044 2.92114 2.9209 6.09068 2.9209 10.0005C2.9209 13.6512 5.68475 16.6572 9.23377 17.0389C9.57696 17.0758 9.82526 17.384 9.78835 17.7272C9.75144 18.0704 9.44329 18.3187 9.1001 18.2817C4.92298 17.8325 1.6709 14.2967 1.6709 10.0005C1.6709 5.40033 5.40008 1.67114 10.0003 1.67114C14.2967 1.67114 17.8326 4.92359 18.2816 9.10104C18.3185 9.44424 18.0701 9.75236 17.7269 9.78924C17.3837 9.82612 17.0756 9.5778 17.0387 9.2346C16.6573 5.6853 13.6512 2.92114 10.0003 2.92114Z" fill="#4B5772"/>
<path fill-rule="evenodd" clip-rule="evenodd" d="M7.76233 11.3546L12.4749 6.64185C12.719 6.39777 13.1147 6.39776 13.3588 6.64183C13.6028 6.88591 13.6029 7.28163 13.3588 7.52572L8.64623 12.2385C8.40216 12.4826 8.00644 12.4826 7.76235 12.2385C7.51827 11.9944 7.51826 11.5987 7.76233 11.3546Z" fill="#4B5772"/>
<path fill-rule="evenodd" clip-rule="evenodd" d="M12.1624 7.8382V12.1415C12.1624 12.4866 11.8826 12.7665 11.5374 12.7665C11.1922 12.7665 10.9124 12.4866 10.9124 12.1415V9.08824L7.85931 9.08833C7.51413 9.08834 7.2343 8.80853 7.23429 8.46335C7.23428 8.11817 7.51409 7.83834 7.85927 7.83833L12.1624 7.8382Z" fill="#4B5772"/>
<path fill-rule="evenodd" clip-rule="evenodd" d="M8.94425 11.0568V13.7508C8.94425 14.096 8.66443 14.3758 8.31925 14.3758C7.97408 14.3758 7.69425 14.096 7.69425 13.7508V12.3068H6.2503C5.90513 12.3068 5.6253 12.027 5.6253 11.6818C5.6253 11.3366 5.90513 11.0568 6.2503 11.0568H8.94425Z" fill="#4B5772"/>
<path fill-rule="evenodd" clip-rule="evenodd" d="M16.1745 11.91C16.0134 11.7802 15.7792 11.8059 15.6508 11.965L12.4229 15.962L12.4221 15.9631C12.4091 15.9791 12.4031 16.0015 12.4079 16.0243L12.622 17.0229C12.6291 17.0563 12.6589 17.0809 12.6927 17.0809L13.7158 17.0814C13.7373 17.0813 13.7585 17.0716 13.773 17.054L17.0001 13.0578C17.1295 12.8978 17.1048 12.6633 16.9454 12.5346L16.1745 11.91ZM14.6782 11.1797C15.242 10.4815 16.2638 10.3754 16.9602 10.9378L16.9609 10.9384L17.7306 11.562C18.4282 12.1256 18.5351 13.1473 17.9726 13.8431L14.7448 17.8401L14.744 17.8412C14.4932 18.1503 14.1159 18.3314 13.7156 18.3314L12.6933 18.3309C12.0701 18.331 11.53 17.8952 11.3997 17.2847L11.1853 16.2847C11.1023 15.8946 11.1991 15.487 11.4508 15.1763L14.6782 11.1797Z" fill="#4B5772"/>
<path fill-rule="evenodd" clip-rule="evenodd" d="M13.8957 12.1603C14.1128 11.892 14.5063 11.8504 14.7747 12.0675L17.0966 13.9456C17.3649 14.1627 17.4065 14.5562 17.1894 14.8246C16.9723 15.093 16.5788 15.1346 16.3104 14.9175L13.9886 13.0393C13.7202 12.8223 13.6786 12.4287 13.8957 12.1603Z" fill="#4B5772"/>
</g>
</g>
</svg>
