<svg width="21" height="20" viewBox="0 0 21 20" fill="none" xmlns="http://www.w3.org/2000/svg">
<path fill-rule="evenodd" clip-rule="evenodd" d="M17.167 6.87533C17.167 5.14944 15.7679 3.75033 14.042 3.75033H9.45866C7.73277 3.75033 6.33366 5.14944 6.33366 6.87533V7.08366C6.33366 7.42884 6.61348 7.70866 6.95866 7.70866C7.30384 7.70866 7.58366 7.42884 7.58366 7.08366V6.87533C7.58366 5.83979 8.42313 5.00033 9.45866 5.00033H14.042C15.0775 5.00033 15.917 5.83979 15.917 6.87533V15.2087C15.917 16.2442 15.0775 17.0837 14.042 17.0837H10.5003C10.1551 17.0837 9.87533 17.3635 9.87533 17.7087C9.87533 18.0538 10.1551 18.3337 10.5003 18.3337H14.042C15.7679 18.3337 17.167 16.9345 17.167 15.2087V6.87533Z" fill="black"/>
<path fill-rule="evenodd" clip-rule="evenodd" d="M9.45866 4.79199V3.54199C9.45866 3.19681 9.73848 2.91699 10.0837 2.91699L13.417 2.91699C13.7622 2.91699 14.042 3.19681 14.042 3.54199L14.042 4.79199L15.292 4.79199L15.292 3.54199C15.292 2.50646 14.4525 1.66699 13.417 1.66699L10.0837 1.66699C9.04813 1.66699 8.20866 2.50646 8.20866 3.54199V4.79199H9.45866Z" fill="black"/>
<path fill-rule="evenodd" clip-rule="evenodd" d="M10.0837 11.4587C10.0837 11.1135 9.80384 10.8337 9.45866 10.8337H4.45866C4.11348 10.8337 3.83366 11.1135 3.83366 11.4587V13.3337C3.83366 15.0595 5.23277 16.4587 6.95866 16.4587C8.68455 16.4587 10.0837 15.0595 10.0837 13.3337V11.4587ZM8.83366 12.0837V13.3337C8.83366 14.3692 7.99419 15.2087 6.95866 15.2087C5.92313 15.2087 5.08366 14.3692 5.08366 13.3337V12.0837H8.83366Z" fill="black"/>
<path fill-rule="evenodd" clip-rule="evenodd" d="M8.41699 9.37533C8.07181 9.37533 7.79199 9.65515 7.79199 10.0003V10.8337C7.79199 11.1788 8.07181 11.4587 8.41699 11.4587C8.76217 11.4587 9.04199 11.1788 9.04199 10.8337V10.0003C9.04199 9.65515 8.76217 9.37533 8.41699 9.37533Z" fill="black"/>
<path fill-rule="evenodd" clip-rule="evenodd" d="M5.50033 9.37533C5.15515 9.37533 4.87533 9.65515 4.87533 10.0003V10.8337C4.87533 11.1788 5.15515 11.4587 5.50033 11.4587C5.8455 11.4587 6.12533 11.1788 6.12533 10.8337V10.0003C6.12533 9.65515 5.8455 9.37533 5.50033 9.37533Z" fill="black"/>
<path fill-rule="evenodd" clip-rule="evenodd" d="M6.95866 15.2087C6.61348 15.2087 6.33366 15.4888 6.33366 15.834V17.7087C6.33366 18.0538 6.61348 18.3337 6.95866 18.3337C7.30384 18.3337 7.58366 18.0538 7.58366 17.7087V15.834C7.58366 15.4888 7.30384 15.2087 6.95866 15.2087Z" fill="black"/>
</svg>
