<svg width="38" height="38" viewBox="0 0 38 38" fill="none" xmlns="http://www.w3.org/2000/svg">
<rect width="38" height="38" rx="19" fill="#EAF8FF"/>
<path fill-rule="evenodd" clip-rule="evenodd" d="M10.6654 14.6934C10.6654 12.9675 12.0645 11.5684 13.7904 11.5684H24.2095C25.9354 11.5684 27.3345 12.9675 27.3345 14.6934V21.4999C27.3345 23.2258 25.9354 24.6249 24.2095 24.6249H21.4743L20.4196 25.8473C19.6716 26.714 18.3283 26.714 17.5804 25.8473L16.5257 24.6249H13.7904C12.0645 24.6249 10.6654 23.2258 10.6654 21.4999V14.6934ZM13.7904 12.8184C12.7549 12.8184 11.9154 13.6578 11.9154 14.6934V21.4999C11.9154 22.5354 12.7549 23.3749 13.7904 23.3749H16.8119C16.9936 23.3749 17.1663 23.454 17.2851 23.5916L18.5268 25.0306C18.7761 25.3196 19.2239 25.3196 19.4732 25.0306L20.7149 23.5916C20.8336 23.454 21.0064 23.3749 21.1881 23.3749H24.2095C25.2451 23.3749 26.0845 22.5354 26.0845 21.4999V14.6934C26.0845 13.6578 25.2451 12.8184 24.2095 12.8184H13.7904Z" fill="#25304B"/>
<path fill-rule="evenodd" clip-rule="evenodd" d="M15.3667 16.6861C15.3667 16.3409 15.6465 16.0611 15.9917 16.0611H22.0083C22.3535 16.0611 22.6333 16.3409 22.6333 16.6861C22.6333 17.0312 22.3535 17.3111 22.0083 17.3111H15.9917C15.6465 17.3111 15.3667 17.0312 15.3667 16.6861Z" fill="#25304B"/>
<path fill-rule="evenodd" clip-rule="evenodd" d="M15.4551 19.864C15.4551 19.5188 15.7349 19.239 16.0801 19.239H19.5967C19.9419 19.239 20.2217 19.5188 20.2217 19.864C20.2217 20.2091 19.9419 20.489 19.5967 20.489H16.0801C15.7349 20.489 15.4551 20.2091 15.4551 19.864Z" fill="#25304B"/>
</svg>
