<svg width="20" height="20" viewBox="0 0 20 20" fill="none" xmlns="http://www.w3.org/2000/svg">
<g id="Frame">
<g id="Vector">
<path fill-rule="evenodd" clip-rule="evenodd" d="M1.66553 7.36021C1.66553 5.63432 3.06464 4.23521 4.79053 4.23521H15.2096C16.9355 4.23521 18.3346 5.63432 18.3346 7.36021V14.3761C18.3346 16.102 16.9355 17.5011 15.2096 17.5011H4.79053C3.06464 17.5011 1.66553 16.102 1.66553 14.3761V7.36021ZM4.79053 5.48521C3.75499 5.48521 2.91553 6.32468 2.91553 7.36021V14.3761C2.91553 15.4117 3.75499 16.2511 4.79053 16.2511H15.2096C16.2452 16.2511 17.0846 15.4117 17.0846 14.3761V7.36021C17.0846 6.32468 16.2452 5.48521 15.2096 5.48521H4.79053Z" fill="#25304B"/>
<path fill-rule="evenodd" clip-rule="evenodd" d="M6.25008 4.37386C6.25008 2.87809 7.46264 1.66553 8.95841 1.66553H11.0417C12.5375 1.66553 13.7501 2.87809 13.7501 4.37386V4.86038H12.5001V4.37386C12.5001 3.56845 11.8472 2.91553 11.0417 2.91553H8.95841C8.153 2.91553 7.50008 3.56845 7.50008 4.37386V4.86038H6.25008V4.37386Z" fill="#25304B"/>
<path fill-rule="evenodd" clip-rule="evenodd" d="M10.0001 7.91675C10.3453 7.91675 10.6251 8.19657 10.6251 8.54175V13.1251C10.6251 13.4703 10.3453 13.7501 10.0001 13.7501C9.6549 13.7501 9.37508 13.4703 9.37508 13.1251V8.54175C9.37508 8.19657 9.6549 7.91675 10.0001 7.91675Z" fill="#25304B"/>
<path fill-rule="evenodd" clip-rule="evenodd" d="M6.66675 7.91675C7.01193 7.91675 7.29175 8.19657 7.29175 8.54175L7.29175 13.1251C7.29175 13.4703 7.01193 13.7501 6.66675 13.7501C6.32157 13.7501 6.04175 13.4703 6.04175 13.1251L6.04175 8.54175C6.04175 8.19657 6.32157 7.91675 6.66675 7.91675Z" fill="#25304B"/>
<path fill-rule="evenodd" clip-rule="evenodd" d="M13.3334 7.91675C13.6786 7.91675 13.9584 8.19657 13.9584 8.54175V13.1251C13.9584 13.4703 13.6786 13.7501 13.3334 13.7501C12.9882 13.7501 12.7084 13.4703 12.7084 13.1251V8.54175C12.7084 8.19657 12.9882 7.91675 13.3334 7.91675Z" fill="#25304B"/>
</g>
</g>
</svg>
