<svg width="16" height="16" viewBox="0 0 16 16" fill="none" xmlns="http://www.w3.org/2000/svg">
<g id="Check">
<g id="Vector">
<path fill-rule="evenodd" clip-rule="evenodd" d="M7.99967 2.33325C4.87006 2.33325 2.33301 4.87031 2.33301 7.99992C2.33301 11.1295 4.87006 13.6666 7.99967 13.6666C11.1293 13.6666 13.6663 11.1295 13.6663 7.99992C13.6663 4.87031 11.1293 2.33325 7.99967 2.33325ZM1.33301 7.99992C1.33301 4.31802 4.31778 1.33325 7.99967 1.33325C11.6816 1.33325 14.6663 4.31802 14.6663 7.99992C14.6663 11.6818 11.6816 14.6666 7.99967 14.6666C4.31778 14.6666 1.33301 11.6818 1.33301 7.99992Z" fill="#000099"/>
<path fill-rule="evenodd" clip-rule="evenodd" d="M10.6835 5.97664C10.8804 6.1702 10.8832 6.48677 10.6896 6.68372L7.41376 10.0171C7.31976 10.1127 7.19126 10.1666 7.05715 10.1666C6.92303 10.1666 6.79454 10.1127 6.70053 10.0171L4.97639 8.26267C4.78284 8.06571 4.78559 7.74914 4.98254 7.55559C5.17949 7.36203 5.49607 7.36478 5.68962 7.56173L7.05715 8.95325L9.97639 5.98279C10.17 5.78583 10.4865 5.78308 10.6835 5.97664Z" fill="#000099"/>
</g>
</g>
</svg>
