<svg width="32" height="32" viewBox="0 0 32 32" fill="none" xmlns="http://www.w3.org/2000/svg">
<path d="M1.02917 14.442C1.08611 14.4515 1.14227 14.4562 1.19803 14.4562C1.67023 14.4562 2.08825 14.1166 2.1713 13.6344C2.19186 13.5157 2.21322 13.3973 2.23734 13.2798C2.34491 12.7438 1.99847 12.2221 1.463 12.1144C0.92911 12.0071 0.406293 12.3535 0.298724 12.8895C0.271832 13.0252 0.246125 13.1618 0.222792 13.2992C0.12946 13.8375 0.490529 14.3493 1.02917 14.442ZM1.06594 17.9396C1.61091 17.9072 2.02655 17.4381 1.99373 16.8926C1.98661 16.7723 1.98107 16.652 1.97712 16.5312C1.95893 15.9846 1.49148 15.5535 0.956398 15.5745C0.410643 15.5927 -0.0172608 16.0499 0.000535581 16.5961C0.00528128 16.7347 0.0116089 16.8728 0.0203094 17.011C0.0515519 17.5363 0.487365 17.9416 1.00623 17.9416C1.026 17.9416 1.04617 17.9412 1.06594 17.9396ZM1.79639 11.0282C1.92294 11.0824 2.05463 11.1082 2.18435 11.1082C2.56835 11.1082 2.93377 10.8829 3.09394 10.5069C3.1414 10.396 3.19004 10.2856 3.24066 10.1756C3.46924 9.67917 3.25213 9.09174 2.7562 8.86294C2.25909 8.63375 1.67339 8.85186 1.44481 9.34785C1.38667 9.47412 1.33012 9.60158 1.27555 9.72944C1.0612 10.2326 1.29413 10.8137 1.79639 11.0282ZM2.56519 20.1009C2.53039 19.9865 2.49717 19.8714 2.46592 19.7554C2.32276 19.2277 1.77938 18.9178 1.25261 19.0599C0.725836 19.2028 0.414598 19.7467 0.557364 20.2739C0.594143 20.4085 0.632504 20.5423 0.672843 20.6753C0.802163 21.1024 1.19447 21.3779 1.61882 21.3779C1.71373 21.3779 1.81023 21.3641 1.90633 21.3352C2.42875 21.1768 2.72377 20.6242 2.56519 20.1009ZM7.22744 5.06561C7.65179 4.72202 7.71823 4.09896 7.37535 3.67343C7.03247 3.24869 6.41039 3.18219 5.98446 3.52538C5.87848 3.61128 5.77328 3.69837 5.66887 3.78585C5.25165 4.13855 5.19905 4.76279 5.55063 5.18041C5.74639 5.41237 6.02559 5.53192 6.30678 5.53192C6.5318 5.53192 6.75841 5.45552 6.94389 5.29876C7.03801 5.21999 7.13253 5.14201 7.22744 5.06561ZM3.86511 23.0907C3.80461 22.9862 3.74489 22.8813 3.68676 22.7749C3.42495 22.2955 2.82462 22.1201 2.34451 22.3826C1.86559 22.645 1.6904 23.2467 1.9526 23.7261C2.01864 23.8472 2.08666 23.9668 2.15587 24.0859C2.33937 24.4018 2.67078 24.5779 3.01128 24.5779C3.18015 24.5779 3.351 24.5348 3.50761 24.4437C3.97941 24.1694 4.13997 23.5634 3.86511 23.0907ZM5.57159 25.433C5.20577 25.0272 4.57974 24.9955 4.17556 25.3621C3.7706 25.7283 3.73896 26.3541 4.10477 26.7594C4.19692 26.8619 4.29065 26.9633 4.38556 27.0634C4.57974 27.2681 4.84036 27.371 5.10216 27.371C5.34696 27.371 5.59176 27.2804 5.78356 27.0987C6.17943 26.7222 6.19525 26.096 5.81876 25.6998C5.73492 25.6119 5.65306 25.5232 5.57159 25.433ZM3.3332 7.88521C3.50998 8.01663 3.71642 8.07956 3.92088 8.07956C4.22341 8.07956 4.52239 7.94102 4.71618 7.67897C4.78855 7.5812 4.86171 7.48461 4.93646 7.38921C5.27261 6.95814 5.19589 6.33627 4.76521 6.0002C4.33415 5.66373 3.71286 5.74092 3.37749 6.1716C3.29286 6.28006 3.20942 6.3901 3.12716 6.50094C2.80208 6.93993 2.89422 7.56022 3.3332 7.88521ZM28.8983 10.4566C28.9461 10.5666 28.9924 10.6775 29.0375 10.7891C29.1925 11.1755 29.5631 11.4098 29.955 11.4098C30.078 11.4098 30.2025 11.3864 30.3236 11.3378C30.8302 11.1339 31.0758 10.5575 30.8721 10.0505C30.8203 9.92182 30.7669 9.79436 30.7123 9.66769C30.4944 9.16536 29.9107 8.93736 29.4116 9.15428C28.9105 9.37279 28.6808 9.95547 28.8983 10.4566ZM27.4789 7.92875C27.6715 8.20109 27.9768 8.34676 28.2865 8.34676C28.4842 8.34676 28.6835 8.28778 28.8567 8.16467C29.3024 7.84879 29.408 7.23167 29.0924 6.78555C29.013 6.67274 28.9319 6.5615 28.85 6.45106C28.5238 6.01326 27.9037 5.92301 27.4663 6.24958C27.0289 6.57655 26.9387 7.19683 27.265 7.63464C27.3377 7.73162 27.4089 7.82979 27.4789 7.92875ZM12.4821 2.39565C12.5584 2.39565 12.6363 2.38654 12.7135 2.36794C12.8317 2.33983 12.9508 2.31252 13.0702 2.28679C13.6041 2.1716 13.9434 1.64513 13.8279 1.11074C13.7128 0.576348 13.1876 0.235923 12.653 0.352301C12.5185 0.381198 12.3848 0.411282 12.2519 0.443345C11.7208 0.570807 11.3938 1.1052 11.5211 1.63642C11.6303 2.09045 12.0356 2.39565 12.4821 2.39565ZM30.6356 12.4295C30.0977 12.5241 29.7383 13.0375 29.8336 13.5759C29.8545 13.695 29.8743 13.8149 29.8921 13.9349C29.966 14.4253 30.3872 14.7772 30.8685 14.7772C30.9176 14.7772 30.967 14.7737 31.0168 14.7662C31.5567 14.685 31.9288 14.1807 31.8473 13.6404C31.8268 13.5038 31.805 13.368 31.7809 13.2327C31.6856 12.6939 31.1719 12.3317 30.6356 12.4295ZM15.9449 1.97922H16.007C16.128 1.97922 16.2482 1.9808 16.3688 1.98397C16.3779 1.98436 16.387 1.98436 16.3957 1.98436C16.9296 1.98436 17.3694 1.55883 17.3836 1.02128C17.3983 0.474616 16.9676 0.020188 16.4218 0.00554179C16.2834 0.00158335 16.1454 0 16.0066 0H15.9445C15.3983 0 14.9558 0.442949 14.9558 0.989609C14.9558 1.53627 15.3987 1.97922 15.9449 1.97922ZM22.3041 3.46878C22.4129 3.5234 22.5212 3.57961 22.6284 3.63701C22.7763 3.71618 22.9357 3.75418 23.0931 3.75418C23.4466 3.75418 23.7883 3.56418 23.9659 3.23008C24.223 2.74795 24.041 2.14864 23.5594 1.89134C23.4379 1.82642 23.3161 1.76309 23.1932 1.70094C22.7051 1.45473 22.1111 1.65146 21.8655 2.13993C21.6203 2.62801 21.8165 3.22296 22.3041 3.46878ZM19.2443 2.35408C19.3626 2.38179 19.48 2.41148 19.5971 2.44196C19.6813 2.46413 19.766 2.47481 19.849 2.47481C20.2872 2.47481 20.6882 2.18031 20.8045 1.73617C20.9433 1.20732 20.6273 0.666601 20.0994 0.52766C19.9661 0.49243 19.8324 0.459179 19.6979 0.427511C19.1625 0.303216 18.6341 0.631767 18.5088 1.16378C18.3834 1.69579 18.7128 2.229 19.2443 2.35408ZM14.4073 29.9943C14.2875 29.9808 14.1684 29.9658 14.0494 29.9487C13.5092 29.8735 13.0085 30.2484 12.9314 30.7895C12.855 31.3306 13.2307 31.8318 13.7714 31.9086C13.9082 31.928 14.0458 31.9454 14.1842 31.9612C14.2222 31.9656 14.2594 31.9675 14.2969 31.9675C14.7929 31.9675 15.2208 31.5951 15.2781 31.0896C15.3394 30.5465 14.9499 30.056 14.4073 29.9943ZM20.8353 29.2319C20.7226 29.273 20.6091 29.313 20.4944 29.3518C19.9764 29.5256 19.6975 30.0865 19.8716 30.6047C20.0104 31.0187 20.3956 31.28 20.8088 31.28C20.9132 31.28 21.0188 31.2633 21.1232 31.2281C21.2549 31.1842 21.3854 31.1379 21.5152 31.0904C22.0281 30.9023 22.2915 30.3339 22.1036 29.8209C21.9154 29.3067 21.3463 29.0442 20.8353 29.2319ZM26.2347 25.6586C26.1513 25.7477 26.0663 25.8347 25.9809 25.9214C25.5972 26.3101 25.6012 26.9368 25.9896 27.3211C26.1821 27.5111 26.4333 27.6065 26.6844 27.6065C26.9399 27.6065 27.1946 27.5084 27.3879 27.3124C27.484 27.215 27.579 27.1161 27.6735 27.0163C28.048 26.6185 28.0294 25.9923 27.6324 25.6174C27.2345 25.2429 26.6097 25.2612 26.2347 25.6586ZM23.7405 27.7617C23.6404 27.8286 23.5392 27.8935 23.4368 27.9576C22.9737 28.247 22.8329 28.8574 23.122 29.3209C23.3094 29.6218 23.6317 29.7864 23.9612 29.7864C24.1403 29.7864 24.321 29.7381 24.484 29.636C24.6018 29.5624 24.7177 29.4876 24.8332 29.4116C25.288 29.1092 25.4126 28.4956 25.1108 28.0396C24.8091 27.584 24.1965 27.4601 23.7405 27.7617ZM29.5294 22.6779C29.0576 22.4051 28.4518 22.5667 28.1789 23.0401C28.1184 23.1454 28.0563 23.2495 27.993 23.3532C27.7079 23.8195 27.8546 24.4287 28.3205 24.7141C28.4814 24.8127 28.6594 24.8594 28.8358 24.8594C29.1684 24.8594 29.4935 24.6911 29.6801 24.3863C29.7521 24.2688 29.8221 24.1496 29.8913 24.0301C30.1642 23.5567 30.002 22.9514 29.5294 22.6779ZM26.6998 5.41316C27.0609 5.00307 27.0213 4.37803 26.6112 4.01663C26.508 3.92598 26.4044 3.83612 26.2992 3.74745C25.8816 3.39634 25.2579 3.44899 24.9063 3.86858C24.5552 4.28699 24.6093 4.91123 25.0274 5.26274C25.1207 5.34112 25.2132 5.42068 25.3046 5.50183C25.4924 5.66769 25.7254 5.74884 25.9575 5.74884C26.2316 5.74884 26.5045 5.63523 26.6998 5.41316ZM8.32014 27.7926C8.21929 27.7265 8.11924 27.6588 8.02037 27.5899C7.57229 27.2788 6.95694 27.3896 6.64451 27.8385C6.33327 28.2874 6.44401 28.9037 6.89287 29.2156C7.00637 29.2944 7.12106 29.3724 7.23733 29.4484C7.40422 29.5576 7.59207 29.6099 7.77794 29.6099C8.09986 29.6099 8.41584 29.4527 8.60607 29.1622C8.90504 28.7058 8.77691 28.0922 8.32014 27.7926ZM11.2336 29.2517C11.1209 29.2109 11.0086 29.1689 10.8971 29.125C10.3885 28.9247 9.81464 29.1745 9.61453 29.6827C9.41442 30.191 9.66396 30.7658 10.1718 30.9665C10.3015 31.0175 10.4324 31.0666 10.5645 31.1141C10.6748 31.1541 10.7875 31.1727 10.899 31.1727C11.304 31.1727 11.684 30.9213 11.8296 30.5176C12.0143 30.0034 11.7477 29.4361 11.2336 29.2517ZM9.98469 3.3338C10.4775 3.09827 10.6863 2.50767 10.4517 2.01445C10.2164 1.52162 9.62718 1.31222 9.13363 1.54696C9.00985 1.60594 8.88685 1.6669 8.76465 1.72865C8.27782 1.97566 8.08246 2.5714 8.32923 3.05868C8.50364 3.40267 8.85126 3.60139 9.21193 3.60139C9.36221 3.60139 9.51487 3.56655 9.65803 3.49411C9.76639 3.43988 9.87514 3.38605 9.98469 3.3338ZM17.6672 29.9871C17.5481 30.0014 17.4283 30.0137 17.3085 30.0247C16.7643 30.0734 16.3629 30.5544 16.4116 31.0987C16.4574 31.6133 16.8889 32 17.3951 32C17.4244 32 17.4544 31.9988 17.4845 31.996C17.6233 31.9838 17.7605 31.9691 17.8981 31.9533C18.4403 31.8896 18.8283 31.3979 18.7646 30.8548C18.7006 30.3121 18.2165 29.9278 17.6672 29.9871ZM30.6953 19.3797C30.1709 19.2226 29.6212 19.5214 29.4658 20.0455C29.4306 20.1623 29.3942 20.2787 29.3574 20.3943C29.1889 20.914 29.4737 21.4725 29.9929 21.6404C30.0942 21.6732 30.197 21.6891 30.2979 21.6891C30.7151 21.6891 31.1026 21.4227 31.2379 21.0043C31.2802 20.874 31.3213 20.743 31.3605 20.6108C31.5163 20.0867 31.2185 19.5361 30.6953 19.3797ZM31.0674 15.9006C30.5039 15.867 30.055 16.2874 30.0242 16.8325C30.0171 16.9536 30.0092 17.0735 29.9993 17.1939C29.9538 17.7385 30.3576 18.2171 30.9017 18.2626C30.9298 18.265 30.9579 18.2662 30.9856 18.2662C31.4942 18.2662 31.9264 17.8759 31.9695 17.3593C31.981 17.2212 31.9909 17.0834 31.9984 16.9445C32.0292 16.399 31.6124 15.9315 31.0674 15.9006ZM12.3196 6.18189C11.9332 6.56863 11.9332 7.19485 12.3196 7.5812L12.4596 7.72133C12.6526 7.9145 12.9057 8.01108 13.1588 8.01108C13.4119 8.01108 13.6646 7.9145 13.858 7.72133C14.2443 7.33459 14.2443 6.70836 13.858 6.32202L13.718 6.18189C13.3316 5.79555 12.706 5.79555 12.3196 6.18189ZM20.4406 12.9112C20.0543 12.5245 19.4286 12.5245 19.0426 12.9112C18.6567 13.298 18.6563 13.9242 19.0426 14.3105L19.2961 14.5643C19.4891 14.7574 19.7422 14.854 19.9953 14.854C20.2484 14.854 20.5012 14.7574 20.6945 14.5643C21.0809 14.1775 21.0809 13.5513 20.6945 13.165L20.4406 12.9112ZM16.7643 12.0301L17.0174 12.2834C17.2104 12.4766 17.4635 12.5732 17.7166 12.5732C17.9697 12.5732 18.2224 12.4766 18.4158 12.2834C18.8022 11.8967 18.8022 11.2705 18.4158 10.8841L18.1627 10.6308C17.7763 10.244 17.1507 10.244 16.7647 10.6308C16.3787 11.0175 16.3779 11.6433 16.7643 12.0301ZM14.7387 10.0026C14.9317 10.1957 15.1848 10.2923 15.4379 10.2923C15.691 10.2923 15.9437 10.1957 16.1371 10.0026C16.5235 9.61583 16.5235 8.98961 16.1371 8.60327L15.8836 8.34953C15.4972 7.96279 14.8716 7.96279 14.4856 8.34953C14.0996 8.73627 14.0992 9.36249 14.4856 9.74884L14.7387 10.0026ZM22.8594 15.3322L22.7194 15.1921C22.333 14.8053 21.7074 14.8053 21.3214 15.1921C21.0928 15.4209 20.9995 15.734 21.0418 16.0317C20.9995 16.3293 21.0928 16.6425 21.3214 16.8713C21.5144 17.0644 21.7675 17.161 22.0206 17.161C22.2737 17.161 22.5264 17.0644 22.7198 16.8713L22.8598 16.7311C23.2454 16.3452 23.2454 15.719 22.8594 15.3322ZM17.0166 19.7807L16.7631 20.0344C16.3767 20.4212 16.3767 21.0474 16.7631 21.4337C16.9561 21.6269 17.2092 21.7235 17.4623 21.7235C17.7154 21.7235 17.9681 21.6269 18.1615 21.4337L18.415 21.18C18.8014 20.7933 18.8014 20.167 18.415 19.7807C18.0286 19.3944 17.403 19.394 17.0166 19.7807ZM16.1355 22.0608C15.7483 21.674 15.1223 21.6744 14.7371 22.062L14.484 22.3157C14.098 22.7028 14.0988 23.3294 14.4852 23.7154C14.6782 23.9082 14.9309 24.0044 15.184 24.0044C15.4375 24.0044 15.6906 23.9078 15.884 23.7142L16.1371 23.4605C16.5223 23.0733 16.5215 22.4467 16.1355 22.0608ZM20.6938 18.8992C21.0801 18.5124 21.0801 17.8862 20.6938 17.4999C20.3074 17.1135 19.6817 17.1131 19.2957 17.4999L19.0422 17.7536C18.6559 18.1403 18.6559 18.7666 19.0422 19.1529C19.2352 19.3461 19.4883 19.4427 19.7414 19.4427C19.9946 19.4427 20.2473 19.3461 20.4406 19.1529L20.6938 18.8992ZM13.7172 25.8814L13.8572 25.7413C14.2436 25.3546 14.2436 24.7284 13.8572 24.342C13.4708 23.9557 12.8452 23.9553 12.4592 24.342L12.3192 24.4821C11.9328 24.8689 11.9328 25.4951 12.3192 25.8814C12.5122 26.0746 12.7653 26.1712 13.0184 26.1712C13.2715 26.1712 13.5238 26.0746 13.7172 25.8814Z" fill="#000099"/>
</svg>
