<svg width="21" height="20" viewBox="0 0 21 20" fill="none" xmlns="http://www.w3.org/2000/svg">
<g id="Frame">
<g id="Vector">
<path fill-rule="evenodd" clip-rule="evenodd" d="M16.7746 3.72603C17.0187 3.97011 17.0187 4.36583 16.7746 4.60991L5.10796 16.2766C4.86388 16.5207 4.46815 16.5207 4.22407 16.2766C3.98 16.0325 3.98 15.6368 4.22407 15.3927L15.8907 3.72603C16.1348 3.48195 16.5305 3.48195 16.7746 3.72603Z" fill="#25304B"/>
<path fill-rule="evenodd" clip-rule="evenodd" d="M16.7746 16.2766C16.5305 16.5207 16.1348 16.5207 15.8907 16.2766L4.22407 4.60991C3.98 4.36583 3.98 3.9701 4.22407 3.72603C4.46815 3.48195 4.86388 3.48195 5.10796 3.72603L16.7746 15.3927C17.0187 15.6368 17.0187 16.0325 16.7746 16.2766Z" fill="#25304B"/>
</g>
</g>
</svg>
