<svg width="21" height="20" viewBox="0 0 21 20" fill="none" xmlns="http://www.w3.org/2000/svg">
<path fill-rule="evenodd" clip-rule="evenodd" d="M11.7503 2.50033H4.45866C3.19301 2.50033 2.16699 3.52634 2.16699 4.79199C2.16699 6.05764 3.19301 7.08366 4.45866 7.08366H11.7503V2.50033ZM10.5003 3.75033V5.83366H4.45866C3.88336 5.83366 3.41699 5.36729 3.41699 4.79199C3.41699 4.2167 3.88336 3.75033 4.45866 3.75033H10.5003Z" fill="black"/>
<path fill-rule="evenodd" clip-rule="evenodd" d="M11.7503 7.50033L11.7503 2.29199C11.7503 1.94681 11.4705 1.66699 11.1253 1.66699C10.7801 1.66699 10.5003 1.94681 10.5003 2.29199L10.5003 7.50033C10.5003 7.8455 10.7801 8.12533 11.1253 8.12533C11.4705 8.12533 11.7503 7.8455 11.7503 7.50033Z" fill="black"/>
<path fill-rule="evenodd" clip-rule="evenodd" d="M11.1253 8.95866C10.9164 8.95866 10.7212 9.0631 10.6053 9.23697L9.52762 10.8535C9.01989 11.6151 9.1203 12.6292 9.76753 13.2764C10.5174 14.0263 11.7332 14.0263 12.4831 13.2764C13.1304 12.6292 13.2308 11.6151 12.723 10.8535L11.6454 9.23697C11.5294 9.0631 11.3343 8.95866 11.1253 8.95866ZM11.1253 10.7104L11.683 11.5469C11.8602 11.8127 11.8251 12.1666 11.5992 12.3925C11.3375 12.6543 10.9131 12.6543 10.6514 12.3925C10.4255 12.1666 10.3905 11.8127 10.5677 11.5469L11.1253 10.7104Z" fill="black"/>
<path fill-rule="evenodd" clip-rule="evenodd" d="M17.167 13.9587C17.167 13.6135 16.8872 13.3337 16.542 13.3337H14.2503C14.1 13.3337 13.9546 13.3879 13.841 13.4864L12.8991 14.3027C11.8811 15.1849 10.3695 15.1849 9.35155 14.3027L8.40966 13.4864C8.29602 13.3879 8.1507 13.3337 8.00033 13.3337H4.45866C4.11348 13.3337 3.83366 13.6135 3.83366 13.9587V17.7087C3.83366 18.0538 4.11348 18.3337 4.45866 18.3337H16.542C16.8872 18.3337 17.167 18.0538 17.167 17.7087V13.9587ZM15.917 14.5837V17.0837H5.08366V14.5837H7.76718L8.53289 15.2473C10.0207 16.5367 12.23 16.5367 13.7178 15.2473L14.4835 14.5837H15.917Z" fill="black"/>
</svg>
