<svg width="20" height="20" viewBox="0 0 20 20" fill="none" xmlns="http://www.w3.org/2000/svg">
<g id="Frame">
<g id="Vector">
<path fill-rule="evenodd" clip-rule="evenodd" d="M10.0033 2.91992C6.09124 2.91992 2.91992 6.09124 2.91992 10.0033C2.91992 13.9153 6.09124 17.0866 10.0033 17.0866C13.9153 17.0866 17.0866 13.9153 17.0866 10.0033C17.0866 6.09124 13.9153 2.91992 10.0033 2.91992ZM1.66992 10.0033C1.66992 5.40088 5.40088 1.66992 10.0033 1.66992C14.6056 1.66992 18.3366 5.40088 18.3366 10.0033C18.3366 14.6056 14.6056 18.3366 10.0033 18.3366C5.40088 18.3366 1.66992 14.6056 1.66992 10.0033Z" fill="#25304B"/>
<path fill-rule="evenodd" clip-rule="evenodd" d="M12.9411 7.05724C13.1852 7.30132 13.1852 7.69705 12.9411 7.94113L7.94113 12.9411C7.69705 13.1852 7.30132 13.1852 7.05724 12.9411C6.81317 12.6971 6.81317 12.3013 7.05724 12.0572L12.0572 7.05724C12.3013 6.81317 12.6971 6.81317 12.9411 7.05724Z" fill="#25304B"/>
<path fill-rule="evenodd" clip-rule="evenodd" d="M12.9411 12.9411C12.6971 13.1852 12.3013 13.1852 12.0572 12.9411L7.05724 7.94113C6.81317 7.69705 6.81317 7.30132 7.05724 7.05724C7.30132 6.81317 7.69705 6.81317 7.94113 7.05724L12.9411 12.0572C13.1852 12.3013 13.1852 12.6971 12.9411 12.9411Z" fill="#25304B"/>
</g>
</g>
</svg>
