<svg width="16" height="16" viewBox="0 0 16 16" fill="#25304B" xmlns="http://www.w3.org/2000/svg">
<g id="Close/Outline">
<path id=" &#226;&#134;&#179;Color" fill-rule="evenodd" clip-rule="evenodd" d="M12.1967 4.74301C12.4563 4.48343 12.4563 4.06258 12.1967 3.80301C11.9371 3.54343 11.5163 3.54343 11.2567 3.80301L8.00004 7.05967L4.74337 3.80301C4.4838 3.54343 4.06295 3.54343 3.80337 3.80301C3.5438 4.06258 3.5438 4.48343 3.80337 4.74301L7.06004 7.99967L3.80337 11.2563C3.5438 11.5159 3.5438 11.9368 3.80337 12.1963C4.06295 12.4559 4.4838 12.4559 4.74337 12.1963L8.00004 8.93967L11.2567 12.1963C11.5163 12.4559 11.9371 12.4559 12.1967 12.1963C12.4563 11.9368 12.4563 11.5159 12.1967 11.2563L8.94004 7.99967L12.1967 4.74301Z" fill=""/>
</g>
</svg>
