<svg width="16" height="16" viewBox="0 0 16 16" fill="none" xmlns="http://www.w3.org/2000/svg">
<g id="Placeholder - Contained Outline">
<path id="Vector" fill-rule="evenodd" clip-rule="evenodd" d="M10.1171 6.39933C10.3124 6.59459 10.3124 6.91119 10.1171 7.10645L6.92246 10.3011C6.7272 10.4963 6.41064 10.4963 6.21538 10.3011C6.02011 10.1058 6.02011 9.78926 6.21537 9.594L9.41003 6.39933C9.60529 6.20407 9.92188 6.20407 10.1171 6.39933Z" fill="#000099"/>
<path id="Vector_2" fill-rule="evenodd" clip-rule="evenodd" d="M6.21297 6.39806C6.40825 6.20282 6.72483 6.20286 6.92007 6.39814L10.1174 9.59611C10.3127 9.7914 10.3126 10.108 10.1174 10.3032C9.92206 10.4985 9.60547 10.4985 9.41022 10.3032L6.21289 7.10517C6.01765 6.90988 6.01768 6.5933 6.21297 6.39806Z" fill="#000099"/>
<path id="Vector_3" fill-rule="evenodd" clip-rule="evenodd" d="M1.5 8.35651C1.5 4.67459 4.48477 1.68982 8.16667 1.68982C11.8485 1.68982 14.8333 4.67459 14.8333 8.35651C14.8333 12.0384 11.8485 15.0232 8.16667 15.0232C4.48477 15.0232 1.5 12.0384 1.5 8.35651ZM8.16667 2.68982C5.03705 2.68982 2.5 5.22687 2.5 8.35651C2.5 11.4861 5.03705 14.0232 8.16667 14.0232C11.2963 14.0232 13.8333 11.4861 13.8333 8.35651C13.8333 5.22687 11.2963 2.68982 8.16667 2.68982Z" fill="#000099"/>
</g>
</svg>
