<svg width="25" height="24" viewBox="0 0 25 24" fill="none" xmlns="http://www.w3.org/2000/svg">
<path fill-rule="evenodd" clip-rule="evenodd" d="M8.1859 13.2383C8.47879 12.9454 8.95366 12.9454 9.24656 13.2383L11.4484 15.4402C11.7413 15.7331 11.7413 16.2079 11.4484 16.5008L6.28388 21.6654C5.60047 22.3488 4.49243 22.3488 3.80901 21.6654L3.02135 20.8777C2.33793 20.1943 2.33793 19.0863 3.02135 18.4028L8.1859 13.2383ZM8.71623 14.8293L4.08201 19.4635C3.98438 19.5611 3.98438 19.7194 4.08201 19.8171L4.86967 20.6047C4.9673 20.7023 5.12559 20.7023 5.22322 20.6047L9.85744 15.9705L8.71623 14.8293Z" fill="black"/>
<path fill-rule="evenodd" clip-rule="evenodd" d="M18.3313 2.01244C18.5549 2.03458 18.7568 2.15581 18.8814 2.34277L19.0888 2.6538C20.8736 5.331 20.5206 8.89581 18.2454 11.171L12.1821 17.2343C11.8892 17.5272 11.4143 17.5272 11.1215 17.2343L7.45167 13.5645C7.15878 13.2716 7.15878 12.7967 7.45167 12.5039L8.73518 11.2203C8.98077 10.9748 9.30611 10.8251 9.65241 10.7985C11.9375 10.6227 13.7939 8.88344 14.118 6.61467L14.2121 5.95553C14.2351 5.79488 14.3095 5.64602 14.4243 5.53127L17.7271 2.22846C17.8859 2.06958 18.1077 1.9903 18.3313 2.01244ZM18.1204 3.95644L15.6617 6.41515L15.6029 6.8268C15.1801 9.78605 12.7625 12.0559 9.78408 12.2928L9.04266 13.0342L11.6518 15.6433L17.1848 10.1103C18.824 8.47107 19.1803 5.97105 18.1204 3.95644Z" fill="black"/>
<path fill-rule="evenodd" clip-rule="evenodd" d="M6.71822 11.7701C7.01111 11.4772 7.48599 11.4772 7.77888 11.7701L12.9166 16.9078C13.2095 17.2007 13.2095 17.6756 12.9166 17.9685C12.6237 18.2614 12.1488 18.2614 11.8559 17.9685L6.71822 12.8308C6.42533 12.5379 6.42533 12.063 6.71822 11.7701Z" fill="black"/>
</svg>
