<svg width="21" height="22" viewBox="0 0 21 22" fill="none" xmlns="http://www.w3.org/2000/svg">
<g id="Danger">
<path id="Fill 1" opacity="0.4" d="M9.71875 13.9477C9.71875 13.5164 10.0687 13.1602 10.5 13.1602C10.9312 13.1602 11.2812 13.5049 11.2812 13.9362V13.9477C11.2812 14.3789 10.9312 14.7289 10.5 14.7289C10.0687 14.7289 9.71875 14.3789 9.71875 13.9477Z" fill="#7FD287"/>
<path id="Stroke 3" d="M2.99532 18.2687H18.0807C19.2755 18.2062 20.1943 17.1885 20.1328 15.9937C20.1193 15.7521 20.0672 15.5135 19.9755 15.2906L12.3953 2.02393C11.8162 0.977059 10.4984 0.597892 9.45157 1.1781C9.09532 1.37393 8.80157 1.66768 8.6047 2.02393L1.02449 15.2906C0.574487 16.3989 1.10782 17.6614 2.21511 18.1125C2.44011 18.2031 2.67761 18.2552 2.91928 18.2687" stroke="#7FD287" stroke-width="1.5" stroke-linecap="round" stroke-linejoin="round"/>
<path id="Stroke 1" opacity="0.4" d="M10.4891 10.9543V7.7251" stroke="#7FD287" stroke-width="1.5" stroke-linecap="round" stroke-linejoin="round"/>
</g>
</svg>
