<svg width="21" height="20" viewBox="0 0 21 20" fill="none" xmlns="http://www.w3.org/2000/svg">
<path fill-rule="evenodd" clip-rule="evenodd" d="M6.77067 2.83556C7.09781 2.94569 7.27374 3.30016 7.16362 3.6273C7.03152 4.01973 6.95918 4.44327 6.95918 4.88624C6.95918 6.55018 7.97871 7.94092 9.3619 8.43821C9.68673 8.55499 9.85538 8.91298 9.7386 9.2378C9.62182 9.56263 9.26383 9.73128 8.93901 9.6145C7.04541 8.93371 5.70918 7.06224 5.70918 4.88624C5.70918 4.30652 5.80395 3.74835 5.97893 3.22851C6.08906 2.90137 6.44353 2.72544 6.77067 2.83556ZM14.231 2.83556C14.5582 2.72544 14.9126 2.90137 15.0228 3.22851C15.1978 3.74835 15.2925 4.30652 15.2925 4.88624C15.2925 6.97144 14.066 8.77578 12.2983 9.52246C11.9803 9.65677 11.6137 9.50788 11.4794 9.18991C11.3451 8.87194 11.4939 8.50528 11.8119 8.37097C13.107 7.82393 14.0425 6.47977 14.0425 4.88624C14.0425 4.44327 13.9702 4.01973 13.8381 3.6273C13.728 3.30016 13.9039 2.94569 14.231 2.83556Z" fill="black"/>
<path fill-rule="evenodd" clip-rule="evenodd" d="M18.6707 10.538C18.3928 10.7428 18.0016 10.6836 17.7968 10.4057C17.5511 10.0724 17.2456 9.77025 16.8827 9.51617C15.4212 8.49277 13.5477 8.61031 12.3455 9.64135C12.0835 9.86607 11.689 9.83583 11.4642 9.57382C11.2395 9.31181 11.2698 8.91724 11.5318 8.69252C13.1856 7.27413 15.6907 7.15555 17.5997 8.49223C18.0746 8.82474 18.4775 9.22252 18.8029 9.66403C19.0077 9.94187 18.9485 10.3331 18.6707 10.538ZM14.3916 16.6491C14.2942 16.9803 13.9467 17.1697 13.6156 17.0723C13.0894 16.9175 12.5778 16.6749 12.1029 16.3424C10.56 15.2621 9.78 13.4948 9.93846 11.7813C9.97025 11.4376 10.2747 11.1847 10.6184 11.2165C10.9621 11.2483 11.2149 11.5527 11.1832 11.8964C11.0663 13.16 11.6421 14.4938 12.8199 15.3185C13.1828 15.5726 13.5712 15.7563 13.9684 15.8731C14.2996 15.9706 14.489 16.318 14.3916 16.6491Z" fill="black"/>
<path fill-rule="evenodd" clip-rule="evenodd" d="M2.34403 10.538C2.62188 10.7428 3.01316 10.6836 3.21797 10.4057C3.46366 10.0724 3.76912 9.77025 4.13198 9.51617C5.57354 8.50678 7.41647 8.60722 8.61996 9.59996C8.88623 9.8196 9.28015 9.7818 9.4998 9.51553C9.71945 9.24925 9.68165 8.85533 9.41537 8.63568C7.76133 7.27129 5.29837 7.17349 3.41501 8.49223C2.94013 8.82474 2.53726 9.22252 2.2118 9.66403C2.00698 9.94187 2.06619 10.3331 2.34403 10.538ZM6.62312 16.6491C6.72056 16.9803 7.06799 17.1697 7.39913 17.0723C7.92532 16.9175 8.4369 16.6749 8.91178 16.3424C10.4836 15.2418 11.2639 13.4281 11.0663 11.6845C11.0274 11.3416 10.7179 11.095 10.3749 11.1339C10.0319 11.1728 9.78539 11.4823 9.82425 11.8253C9.96979 13.1096 9.39493 14.4782 8.19481 15.3185C7.83195 15.5726 7.44352 15.7563 7.04629 15.8731C6.71515 15.9706 6.52569 16.318 6.62312 16.6491Z" fill="black"/>
<path fill-rule="evenodd" clip-rule="evenodd" d="M10.5009 9.0529C9.92555 9.0529 9.45918 9.51927 9.45918 10.0946C9.45918 10.6699 9.92555 11.1362 10.5009 11.1362C11.0761 11.1362 11.5425 10.6699 11.5425 10.0946C11.5425 9.51927 11.0761 9.0529 10.5009 9.0529ZM8.20918 10.0946C8.20918 8.82892 9.2352 7.8029 10.5009 7.8029C11.7665 7.8029 12.7925 8.82892 12.7925 10.0946C12.7925 11.3602 11.7665 12.3862 10.5009 12.3862C9.2352 12.3862 8.20918 11.3602 8.20918 10.0946Z" fill="black"/>
<path fill-rule="evenodd" clip-rule="evenodd" d="M10.5009 5.71957C10.2517 5.71957 10.0079 5.74033 9.77093 5.78009C9.43051 5.8372 9.10824 5.60753 9.05113 5.26711C8.99402 4.92669 9.22369 4.60443 9.56411 4.54732C9.86915 4.49614 10.1821 4.46957 10.5009 4.46957C10.8196 4.46957 11.1326 4.49614 11.4376 4.54732C11.778 4.60443 12.0077 4.92669 11.9506 5.26711C11.8935 5.60753 11.5712 5.8372 11.2308 5.78009C10.9938 5.74033 10.75 5.71957 10.5009 5.71957Z" fill="black"/>
<path fill-rule="evenodd" clip-rule="evenodd" d="M14.268 12.3256C14.3936 12.1104 14.4985 11.8893 14.5836 11.6646C14.7058 11.3418 15.0666 11.1792 15.3894 11.3014C15.7122 11.4236 15.8748 11.7844 15.7526 12.1072C15.6431 12.3965 15.5083 12.6802 15.3477 12.9555C15.1871 13.2308 15.0064 13.4877 14.8085 13.7254C14.5876 13.9907 14.1936 14.0267 13.9283 13.8058C13.663 13.5849 13.6271 13.1908 13.8479 12.9256C14.0017 12.7409 14.1425 12.5408 14.268 12.3256Z" fill="black"/>
<path fill-rule="evenodd" clip-rule="evenodd" d="M6.73 12.3256C6.60445 12.1104 6.49952 11.8893 6.41444 11.6646C6.29223 11.3418 5.93146 11.1792 5.60864 11.3014C5.28582 11.4236 5.1232 11.7844 5.24542 12.1072C5.35493 12.3965 5.48971 12.6802 5.65032 12.9555C5.81093 13.2308 5.9916 13.4877 6.18952 13.7254C6.4104 13.9907 6.80448 14.0267 7.06974 13.8058C7.335 13.5849 7.37098 13.1908 7.1501 12.9256C6.99634 12.7409 6.85555 12.5408 6.73 12.3256Z" fill="black"/>
</svg>
