<svg width="20" height="20" viewBox="0 0 20 20" fill="none" xmlns="http://www.w3.org/2000/svg">
<g id="Frame">
<g id="Vector">
<path fill-rule="evenodd" clip-rule="evenodd" d="M10.2081 16.875C10.2081 16.5298 10.488 16.25 10.8331 16.25H16.877C17.2222 16.25 17.502 16.5298 17.502 16.875C17.502 17.2202 17.2222 17.5 16.877 17.5H10.8331C10.488 17.5 10.2081 17.2202 10.2081 16.875Z" fill="black"/>
<path fill-rule="evenodd" clip-rule="evenodd" d="M10.9711 3.0551C11.645 2.26885 12.8286 2.17777 13.6149 2.85167L16.0114 4.90571C16.7976 5.57961 16.8887 6.7633 16.2148 7.54955L8.19807 16.9028C7.83613 17.3251 7.30541 17.5649 6.7493 17.5575L3.65186 17.5159C3.34997 17.5119 3.09412 17.2926 3.04394 16.9949L2.52903 13.9403C2.43658 13.3918 2.59237 12.8307 2.95431 12.4084L10.9711 3.0551ZM12.8014 3.80076C12.5393 3.57613 12.1448 3.60649 11.9201 3.86857L3.9034 13.2219C3.78276 13.3626 3.73082 13.5497 3.76164 13.7325L4.18989 16.273L6.76606 16.3076C6.95143 16.3101 7.12834 16.2301 7.24898 16.0894L15.2657 6.73608C15.4904 6.474 15.46 6.07943 15.1979 5.8548L12.8014 3.80076Z" fill="black"/>
<path fill-rule="evenodd" clip-rule="evenodd" d="M13.5202 9.79195L9.34099 6.2099L10.1545 5.26081L14.3337 8.84286L13.5202 9.79195Z" fill="black"/>
</g>
</g>
</svg>
