<svg xmlns="http://www.w3.org/2000/svg" width="21" height="20" viewBox="0 0 21 20" fill="none">
  <path fill-rule="evenodd" clip-rule="evenodd" d="M10.5017 16.8736C10.5017 16.5285 10.7815 16.2486 11.1267 16.2486H17.3789C17.7241 16.2486 18.0039 16.5285 18.0039 16.8736C18.0039 17.2188 17.7241 17.4986 17.3789 17.4986H11.1267C10.7815 17.4986 10.5017 17.2188 10.5017 16.8736Z" fill="#000099"/>
  <path fill-rule="evenodd" clip-rule="evenodd" d="M13.0291 3.05406C13.7618 2.32128 14.9501 2.3219 15.6821 3.05545L17.4457 4.82276C18.1765 5.55504 18.1761 6.7408 17.4448 7.47257L7.9777 16.9462C7.59063 17.3335 7.05359 17.5323 6.50762 17.4903L3.79709 17.2818C3.48972 17.2581 3.24551 17.0139 3.22186 16.7065L3.01334 13.9958C2.97136 13.45 3.16995 12.9132 3.55699 12.5261L13.0291 3.05406ZM14.7973 3.9384C14.5533 3.69389 14.1572 3.69368 13.9129 3.93794L4.44088 13.41C4.31186 13.539 4.24567 13.718 4.25966 13.8999L4.42709 16.0765L6.60349 16.244C6.78548 16.258 6.96449 16.1917 7.09351 16.0626L16.5606 6.58899C16.8044 6.34507 16.8045 5.94981 16.5609 5.70572L14.7973 3.9384Z" fill="#000099"/>
  <path fill-rule="evenodd" clip-rule="evenodd" d="M14.8602 9.17923L11.3236 5.6426L12.2075 4.75872L15.7441 8.29535L14.8602 9.17923Z" fill="#000099"/>
</svg>