<svg xmlns="http://www.w3.org/2000/svg" width="31" height="31" viewBox="0 0 31 31" fill="none">
  <path fill-rule="evenodd" clip-rule="evenodd" d="M3.00586 15.5059C3.00586 8.6023 8.6023 3.00586 15.5059 3.00586C22.4094 3.00586 28.0059 8.6023 28.0059 15.5059C28.0059 22.4094 22.4094 28.0059 15.5059 28.0059C8.6023 28.0059 3.00586 22.4094 3.00586 15.5059ZM11.1248 14.2498C11.8151 14.2498 12.3748 13.6901 12.3748 12.9998C12.3748 12.3094 11.8151 11.7498 11.1248 11.7498C10.4344 11.7498 9.87476 12.3094 9.87476 12.9998C9.87476 13.6901 10.4344 14.2498 11.1248 14.2498ZM19.8748 14.2498C20.5651 14.2498 21.1248 13.6901 21.1248 12.9998C21.1248 12.3094 20.5651 11.7498 19.8748 11.7498C19.1844 11.7498 18.6248 12.3094 18.6248 12.9998C18.6248 13.6901 19.1844 14.2498 19.8748 14.2498ZM11.6508 21.3837C11.1627 21.2112 10.9068 20.6756 11.0793 20.1874C11.7224 18.368 13.4574 17.0623 15.4999 17.0623C17.5423 17.0623 19.2774 18.368 19.9204 20.1874C20.0929 20.6756 19.8371 21.2112 19.3489 21.3837C18.8607 21.5563 18.3251 21.3004 18.1526 20.8122C17.766 19.7186 16.723 18.9373 15.4999 18.9373C14.2768 18.9373 13.2337 19.7186 12.8472 20.8122C12.6746 21.3004 12.139 21.5563 11.6508 21.3837Z" fill="#E4454D"/>
</svg>