<svg xmlns="http://www.w3.org/2000/svg" width="31" height="31" viewBox="0 0 31 31" fill="none">
  <path fill-rule="evenodd" clip-rule="evenodd" d="M3.00586 15.5059C3.00586 8.6023 8.6023 3.00586 15.5059 3.00586C22.4094 3.00586 28.0059 8.6023 28.0059 15.5059C28.0059 22.4094 22.4094 28.0059 15.5059 28.0059C8.6023 28.0059 3.00586 22.4094 3.00586 15.5059ZM11.1248 14.2498C11.8151 14.2498 12.3748 13.6901 12.3748 12.9998C12.3748 12.3094 11.8151 11.7498 11.1248 11.7498C10.4344 11.7498 9.87476 12.3094 9.87476 12.9998C9.87476 13.6901 10.4344 14.2498 11.1248 14.2498ZM19.8748 14.2498C20.5651 14.2498 21.1248 13.6901 21.1248 12.9998C21.1248 12.3094 20.5651 11.7498 19.8748 11.7498C19.1844 11.7498 18.6248 12.3094 18.6248 12.9998C18.6248 13.6901 19.1844 14.2498 19.8748 14.2498ZM11.7498 17.0623C11.232 17.0623 10.8123 17.482 10.8123 17.9998C10.8123 20.5886 12.9109 22.6873 15.4998 22.6873C18.0886 22.6873 20.1873 20.5886 20.1873 17.9998C20.1873 17.482 19.7675 17.0623 19.2498 17.0623H11.7498Z" fill="#209326"/>
</svg>