<svg width="21" height="20" viewBox="0 0 21 20" fill="none" xmlns="http://www.w3.org/2000/svg">
<g id="Frame">
<path id="Ellipse 3488" d="M7.43025 14.1654C6.87436 13.4838 6.54102 12.6135 6.54102 11.6654C6.54102 9.47924 8.31322 7.70703 10.4993 7.70703C12.6855 7.70703 14.4577 9.47924 14.4577 11.6654C14.4577 12.6135 14.1243 13.4838 13.5684 14.1654" stroke="black" stroke-width="1.25"/>
<path id="Line 46" d="M18.209 10.832L17.2745 10.832" stroke="black" stroke-width="1.25" stroke-linecap="round"/>
<path id="Line 47" d="M3.72461 10.832L2.79015 10.832" stroke="black" stroke-width="1.25" stroke-linecap="round"/>
<path id="Line 49" d="M5.70898 6.875L5.04823 6.21424" stroke="black" stroke-width="1.25" stroke-linecap="round"/>
<path id="Line 50" d="M15.9492 6.21484L15.2885 6.8756" stroke="black" stroke-width="1.25" stroke-linecap="round"/>
<path id="Line 52" d="M3.625 14.375H17.375" stroke="black" stroke-width="1.25" stroke-linecap="round"/>
<path id="Line 53" d="M5.29102 17.707H15.7077" stroke="black" stroke-width="1.25" stroke-linecap="round"/>
<g id="Group 1321316328">
<path id="Line 44" d="M10.5039 5.60352L10.5039 2.27018" stroke="black" stroke-width="1.25" stroke-linecap="round"/>
<path id="Rectangle 3466643" d="M12.2695 3.85156L10.5018 5.61933L8.734 3.85156" stroke="black" stroke-width="1.25" stroke-linecap="round" stroke-linejoin="round"/>
</g>
</g>
</svg>
