<svg width="21" height="20" viewBox="0 0 21 20" fill="none" xmlns="http://www.w3.org/2000/svg">
<path fill-rule="evenodd" clip-rule="evenodd" d="M12.3747 6.66715C15.2512 6.66715 17.583 8.999 17.583 11.8755C17.583 14.752 15.2512 17.0838 12.3747 17.0838C9.49819 17.0838 7.16634 14.752 7.16634 11.8755C7.16634 8.999 9.49819 6.66715 12.3747 6.66715ZM18.833 11.8755C18.833 8.30865 15.9415 5.41715 12.3747 5.41715C8.80784 5.41715 5.91634 8.30865 5.91634 11.8755C5.91634 15.4423 8.80784 18.3338 12.3747 18.3338C15.9415 18.3338 18.833 15.4423 18.833 11.8755Z" fill="black"/>
<path fill-rule="evenodd" clip-rule="evenodd" d="M8.68535 4.22C8.44127 3.97593 8.04555 3.97593 7.80147 4.22L4.85519 7.16628C4.61111 7.41036 4.61111 7.80609 4.85519 8.05017L6.32833 9.5233C6.57241 9.76738 6.96813 9.76738 7.21221 9.5233C7.45629 9.27923 7.45629 8.8835 7.21221 8.63942L6.18101 7.60822L8.24341 5.54583L9.27461 6.57703C9.51868 6.8211 9.91441 6.8211 10.1585 6.57703C10.4026 6.33295 10.4026 5.93722 10.1585 5.69314L8.68535 4.22Z" fill="black"/>
<path fill-rule="evenodd" clip-rule="evenodd" d="M6.95801 3.33512L6.95801 2.29297C6.95801 1.94779 6.67819 1.66797 6.33301 1.66797C5.98783 1.66797 5.70801 1.94779 5.70801 2.29297L5.70801 3.33512C5.70801 3.6803 5.98783 3.96012 6.33301 3.96012C6.67819 3.96012 6.95801 3.6803 6.95801 3.33512Z" fill="black"/>
<path fill-rule="evenodd" clip-rule="evenodd" d="M3.83309 5.20914L2.79094 5.20914C2.44576 5.20914 2.16594 5.48897 2.16594 5.83414C2.16594 6.17932 2.44576 6.45914 2.79094 6.45914L3.83309 6.45914C4.17827 6.45914 4.45809 6.17932 4.45809 5.83414C4.45809 5.48897 4.17827 5.20914 3.83309 5.20914Z" fill="black"/>
<path fill-rule="evenodd" clip-rule="evenodd" d="M4.49103 3.10877L3.75412 2.37186C3.51004 2.12778 3.11431 2.12778 2.87023 2.37186C2.62616 2.61594 2.62616 3.01167 2.87024 3.25574L3.60715 3.99266C3.85122 4.23673 4.24695 4.23673 4.49103 3.99266C4.73511 3.74858 4.73511 3.35285 4.49103 3.10877Z" fill="black"/>
</svg>
