<svg width="16" height="17" viewBox="0 0 16 17" fill="none" xmlns="http://www.w3.org/2000/svg">
<g id="Filter 2 3">
<path id="Stroke-1" fill-rule="evenodd" clip-rule="evenodd" d="M2.90833 2.21582C2.31656 2.21582 1.83643 2.70403 1.83643 3.30501V3.94606C1.83643 4.39123 2.00571 4.81934 2.30853 5.14134L5.62714 8.67007L5.6286 8.66785C6.26927 9.32374 6.62973 10.2104 6.62973 11.1348V14.2659C6.62973 14.4751 6.84864 14.6087 7.03033 14.51L8.92021 13.4802C9.20552 13.3243 9.38356 13.0216 9.38356 12.6929V11.1267C9.38356 10.2074 9.73892 9.32448 10.3737 8.67007L13.6924 5.14134C13.9944 4.81934 14.1637 4.39123 14.1637 3.94606V3.30501C14.1637 2.70403 13.6843 2.21582 13.0926 2.21582H2.90833Z" stroke="#000099" stroke-linecap="round" stroke-linejoin="round"/>
</g>
</svg>
