<svg width="21" height="20" viewBox="0 0 21 20" fill="none" xmlns="http://www.w3.org/2000/svg">
<path fill-rule="evenodd" clip-rule="evenodd" d="M7.97498 2.21617C7.62335 1.86454 7.14644 1.66699 6.64915 1.66699H5.70859C4.67305 1.66699 3.83359 2.50646 3.83359 3.54199V16.4587C3.83359 17.4942 4.67305 18.3337 5.70859 18.3337H15.2919C16.3275 18.3337 17.1669 17.4942 17.1669 16.4587V7.12669C17.1669 6.50056 16.8544 5.91575 16.3338 5.56782L15.0263 4.69388C14.5123 4.35035 13.908 4.16699 13.2898 4.16699H10.1847C10.0189 4.16699 9.85996 4.10114 9.74275 3.98393L7.97498 2.21617ZM6.64915 2.91699C6.81491 2.91699 6.97389 2.98284 7.0911 3.10005L8.85886 4.86782C9.21049 5.21945 9.68741 5.41699 10.1847 5.41699H13.2898C13.6607 5.41699 14.0233 5.52701 14.3317 5.73313L15.6392 6.60707C15.8127 6.72304 15.9169 6.91798 15.9169 7.12669V16.4587C15.9169 16.8038 15.6371 17.0837 15.2919 17.0837H5.70859C5.36341 17.0837 5.08359 16.8038 5.08359 16.4587V3.54199C5.08359 3.19681 5.36341 2.91699 5.70859 2.91699H6.64915Z" fill="black"/>
<path fill-rule="evenodd" clip-rule="evenodd" d="M10.6919 7.03004C10.4998 6.86189 10.2247 6.82748 9.9971 6.94312C9.56927 7.1605 8.95069 7.60276 8.37899 8.1936C7.80753 8.7842 7.2384 9.56902 6.97499 10.4854C6.87632 10.8179 6.82357 11.1695 6.82357 11.5324C6.82357 13.5627 8.4695 15.2087 10.4998 15.2087C12.5302 15.2087 14.1761 13.5627 14.1761 11.5324C14.1761 10.0649 13.3163 8.79953 12.0757 8.2102C11.8408 8.0986 11.5613 8.14415 11.374 8.32458C11.1866 8.50502 11.1306 8.7826 11.2333 9.02156C11.263 9.09062 11.3295 9.36211 11.322 9.66676C11.3148 9.95922 11.2456 10.0936 11.2072 10.1377C11.2045 10.1367 11.2015 10.1356 11.1982 10.1341C11.1375 10.1081 11.0166 10.0206 10.8995 9.81593C10.6728 9.41951 10.5275 8.68376 10.87 7.70719C10.9545 7.46628 10.884 7.19819 10.6919 7.03004ZM9.41786 8.92212C9.43299 9.51011 9.57993 10.0265 9.81451 10.4366C10.0276 10.809 10.332 11.123 10.7061 11.2832C11.1004 11.4521 11.5686 11.4401 11.9576 11.1402C12.2883 10.8852 12.4453 10.5215 12.5169 10.1833C12.7755 10.5693 12.9261 11.0334 12.9261 11.5324C12.9261 12.8724 11.8398 13.9587 10.4998 13.9587C9.15985 13.9587 8.07357 12.8724 8.07357 11.5324C8.07357 11.2905 8.10879 11.0579 8.17396 10.8389L8.17577 10.8328C8.36254 10.1812 8.78794 9.56857 9.27731 9.06281C9.32405 9.0145 9.37097 8.96759 9.41786 8.92212Z" fill="black"/>
<path fill-rule="evenodd" clip-rule="evenodd" d="M12.6724 1.92438C12.5548 1.76267 12.3669 1.66699 12.1669 1.66699H6.33359C5.98841 1.66699 5.70859 1.94681 5.70859 2.29199C5.70859 2.63717 5.98841 2.91699 6.33359 2.91699H11.8487L13.3281 4.95127C13.5312 5.23042 13.922 5.29214 14.2012 5.08912C14.4804 4.8861 14.5421 4.49521 14.339 4.21605L12.6724 1.92438Z" fill="black"/>
<path fill-rule="evenodd" clip-rule="evenodd" d="M15.1604 2.72266C14.9952 2.75823 14.8515 2.85914 14.7619 3.00241L13.8824 4.40968C13.6994 4.70239 13.7884 5.08798 14.0811 5.27093C14.3738 5.45387 14.7594 5.36489 14.9424 5.07218L15.4808 4.21072L16.3244 4.77312L15.7977 5.65099C15.6201 5.94698 15.716 6.33089 16.012 6.50848C16.308 6.68607 16.6919 6.5901 16.8695 6.29411L17.7029 4.90522C17.8745 4.61914 17.7912 4.24869 17.5136 4.06363L15.6386 2.81363C15.498 2.71991 15.3255 2.6871 15.1604 2.72266Z" fill="black"/>
</svg>
