<svg width="21" height="20" viewBox="0 0 21 20" fill="none" xmlns="http://www.w3.org/2000/svg">
<path fill-rule="evenodd" clip-rule="evenodd" d="M2.99707 11.713C2.99707 11.3678 3.27689 11.088 3.62207 11.088H13.0434C13.3885 11.088 13.6684 11.3678 13.6684 11.713V15.2084C13.6684 16.9343 12.2693 18.3334 10.5434 18.3334H6.12207C4.39618 18.3334 2.99707 16.9343 2.99707 15.2084V11.713ZM4.24707 12.338V15.2084C4.24707 16.2439 5.08654 17.0834 6.12207 17.0834H10.5434C11.5789 17.0834 12.4184 16.2439 12.4184 15.2084V12.338H4.24707Z" fill="black"/>
<path fill-rule="evenodd" clip-rule="evenodd" d="M5.56651 8.28763C5.56651 7.94245 5.84634 7.66263 6.19151 7.66263H10.4739C10.8191 7.66263 11.0989 7.94245 11.0989 8.28763V11.7136H9.84892V8.91263H6.81651V11.7136H5.56651V8.28763Z" fill="black"/>
<path fill-rule="evenodd" clip-rule="evenodd" d="M12.4185 2.29199C12.4185 1.94681 12.6983 1.66699 13.0435 1.66699H14.8723C16.5982 1.66699 17.9973 3.0661 17.9973 4.79199V9.21328C17.9973 10.9392 16.5982 12.3383 14.8723 12.3383H13.0435C12.6983 12.3383 12.4185 12.0585 12.4185 11.7133V2.29199ZM13.6685 2.91699V11.0883H14.8723C15.9079 11.0883 16.7473 10.2488 16.7473 9.21328V4.79199C16.7473 3.75646 15.9079 2.91699 14.8723 2.91699H13.6685Z" fill="black"/>
<path fill-rule="evenodd" clip-rule="evenodd" d="M8.76278 1.83835L8.33285 2.29199L7.90293 1.83835C8.14401 1.60987 8.52169 1.60987 8.76278 1.83835ZM8.33285 3.18833C8.21683 3.31483 8.08825 3.46088 7.96035 3.6174C7.75803 3.86502 7.5683 4.12566 7.43216 4.36748C7.28658 4.62604 7.24489 4.78932 7.24489 4.86144C7.24489 5.4623 7.73199 5.9494 8.33285 5.9494C8.93372 5.9494 9.42082 5.4623 9.42082 4.86144C9.42082 4.78932 9.37913 4.62604 9.23355 4.36748C9.09741 4.12566 8.90768 3.86502 8.70535 3.6174C8.57746 3.46088 8.44888 3.31483 8.33285 3.18833ZM7.90293 1.83835C7.90293 1.83835 7.90293 1.83835 8.33285 2.29199C8.76278 1.83835 8.76278 1.83835 8.76278 1.83835L8.76361 1.83914L8.76506 1.84052L8.76981 1.84505L8.78635 1.86097C8.80042 1.87455 8.82043 1.89402 8.84554 1.91881C8.89572 1.96834 8.96647 2.03932 9.05098 2.12719C9.21931 2.30222 9.44548 2.54764 9.67332 2.82649C9.89923 3.10298 10.1377 3.42557 10.3228 3.75422C10.4984 4.06612 10.6708 4.46053 10.6708 4.86144C10.6708 6.15266 9.62408 7.1994 8.33285 7.1994C7.04163 7.1994 5.99489 6.15266 5.99489 4.86144C5.99489 4.46053 6.16732 4.06612 6.34293 3.75422C6.52796 3.42557 6.76648 3.10298 6.99239 2.82649C7.22023 2.54764 7.44639 2.30222 7.61473 2.12719C7.69924 2.03932 7.76999 1.96834 7.82017 1.91881C7.84528 1.89402 7.86529 1.87455 7.87935 1.86097L7.8959 1.84505L7.90064 1.84052L7.90293 1.83835Z" fill="black"/>
<path fill-rule="evenodd" clip-rule="evenodd" d="M8.33254 9.58366C8.67772 9.58366 8.95754 9.86348 8.95754 10.2087V11.6173H7.70754V10.2087C7.70754 9.86348 7.98736 9.58366 8.33254 9.58366Z" fill="black"/>
</svg>
