<svg xmlns="http://www.w3.org/2000/svg" width="8" height="9" viewBox="0 0 8 9" fill="none">
<path d="M6.24884 3.4552C6.41782 3.4552 6.5548 3.31821 6.5548 3.14923C6.5548 2.98025 6.41782 2.84326 6.24884 2.84326C6.07986 2.84326 5.94287 2.98025 5.94287 3.14923C5.94287 3.31821 6.07986 3.4552 6.24884 3.4552Z" fill="#000099"/>
<path d="M5.2315 2.43128C5.40048 2.43128 5.53747 2.29429 5.53747 2.12531C5.53747 1.95632 5.40048 1.81934 5.2315 1.81934C5.06252 1.81934 4.92554 1.95632 4.92554 2.12531C4.92554 2.29429 5.06252 2.43128 5.2315 2.43128Z" fill="#000099"/>
<path d="M6.24884 2.43128C6.41782 2.43128 6.5548 2.29429 6.5548 2.12531C6.5548 1.95632 6.41782 1.81934 6.24884 1.81934C6.07986 1.81934 5.94287 1.95632 5.94287 2.12531C5.94287 2.29429 6.07986 2.43128 6.24884 2.43128Z" fill="#000099"/>
<path d="M4.21148 2.43128C4.38046 2.43128 4.51745 2.29429 4.51745 2.12531C4.51745 1.95632 4.38046 1.81934 4.21148 1.81934C4.0425 1.81934 3.90552 1.95632 3.90552 2.12531C3.90552 2.29429 4.0425 2.43128 4.21148 2.43128Z" fill="#000099"/>
<path d="M7.18679 1.19032C7.30625 1.30978 7.30625 1.50323 7.18679 1.62308C7.06733 1.74292 6.87389 1.74253 6.75404 1.62308C6.6342 1.50362 6.63459 1.31017 6.75404 1.19032C6.8735 1.07048 7.06695 1.07087 7.18679 1.19032Z" fill="#000099"/>
<path d="M7.90944 0.468989C8.0289 0.588448 8.0289 0.781895 7.90944 0.90174C7.78999 1.02158 7.59654 1.0212 7.4767 0.90174C7.35686 0.78228 7.35724 0.588833 7.4767 0.468989C7.59616 0.34953 7.7896 0.34953 7.90944 0.468989Z" fill="#000099"/>
<path d="M3.19098 2.43128C3.35996 2.43128 3.49694 2.29429 3.49694 2.12531C3.49694 1.95632 3.35996 1.81934 3.19098 1.81934C3.022 1.81934 2.88501 1.95632 2.88501 2.12531C2.88501 2.29429 3.022 2.43128 3.19098 2.43128Z" fill="#000099"/>
<path d="M2.16973 2.43128C2.33871 2.43128 2.4757 2.29429 2.4757 2.12531C2.4757 1.95632 2.33871 1.81934 2.16973 1.81934C2.00075 1.81934 1.86377 1.95632 1.86377 2.12531C1.86377 2.29429 2.00075 2.43128 2.16973 2.43128Z" fill="#000099"/>
<path d="M6.24884 4.47327C6.41782 4.47327 6.5548 4.33628 6.5548 4.1673C6.5548 3.99832 6.41782 3.86133 6.24884 3.86133C6.07986 3.86133 5.94287 3.99832 5.94287 4.1673C5.94287 4.33628 6.07986 4.47327 6.24884 4.47327Z" fill="#000099"/>
<path d="M2.34381 7.35706C2.51279 7.35706 2.64977 7.22007 2.64977 7.05109C2.64977 6.8821 2.51279 6.74512 2.34381 6.74512C2.17483 6.74512 2.03784 6.8821 2.03784 7.05109C2.03784 7.22007 2.17483 7.35706 2.34381 7.35706Z" fill="#000099"/>
<path d="M1.32598 6.33704C1.49496 6.33704 1.63195 6.20005 1.63195 6.03107C1.63195 5.86209 1.49496 5.7251 1.32598 5.7251C1.157 5.7251 1.02002 5.86209 1.02002 6.03107C1.02002 6.20005 1.157 6.33704 1.32598 6.33704Z" fill="#000099"/>
<path d="M2.34381 6.33704C2.51279 6.33704 2.64977 6.20005 2.64977 6.03107C2.64977 5.86209 2.51279 5.7251 2.34381 5.7251C2.17483 5.7251 2.03784 5.86209 2.03784 6.03107C2.03784 6.20005 2.17483 6.33704 2.34381 6.33704Z" fill="#000099"/>
<path d="M0.305965 6.33704C0.474945 6.33704 0.611931 6.20005 0.611931 6.03107C0.611931 5.86209 0.474945 5.7251 0.305965 5.7251C0.136985 5.7251 0 5.86209 0 6.03107C0 6.20005 0.136985 6.33704 0.305965 6.33704Z" fill="#000099"/>
<path d="M2.34381 8.37927C2.51279 8.37927 2.64977 8.24229 2.64977 8.0733C2.64977 7.90432 2.51279 7.76733 2.34381 7.76733C2.17483 7.76733 2.03784 7.90432 2.03784 8.0733C2.03784 8.24229 2.17483 8.37927 2.34381 8.37927Z" fill="#000099"/>
<path d="M6.24884 5.49353C6.41782 5.49353 6.5548 5.35654 6.5548 5.18756C6.5548 5.01858 6.41782 4.88159 6.24884 4.88159C6.07986 4.88159 5.94287 5.01858 5.94287 5.18756C5.94287 5.35654 6.07986 5.49353 6.24884 5.49353Z" fill="#000099"/>
<path d="M6.24884 5.90161C6.418 5.90161 6.5548 6.03841 6.5548 6.20758C6.5548 6.37675 6.418 6.51355 6.24884 6.51355C6.07967 6.51355 5.94287 6.37675 5.94287 6.20758C5.94287 6.03841 6.07967 5.90161 6.24884 5.90161Z" fill="#000099"/>
<path d="M3.78765 4.8971C3.95663 4.8971 4.09362 4.76011 4.09362 4.59113C4.09362 4.42214 3.95663 4.28516 3.78765 4.28516C3.61867 4.28516 3.48169 4.42214 3.48169 4.59113C3.48169 4.76011 3.61867 4.8971 3.78765 4.8971Z" fill="#000099"/>
<path d="M4.72585 3.65175C4.84531 3.77121 4.84531 3.96466 4.72585 4.0845C4.6064 4.20435 4.41295 4.20396 4.29311 4.0845C4.17326 3.96504 4.17365 3.7716 4.29311 3.65175C4.41256 3.53191 4.60601 3.53229 4.72585 3.65175Z" fill="#000099"/>
<path d="M5.44787 2.92909C5.56733 3.04855 5.56733 3.242 5.44787 3.36185C5.32842 3.48169 5.13497 3.4813 5.01513 3.36185C4.89567 3.24239 4.89567 3.04894 5.01513 2.92909C5.13459 2.80925 5.32803 2.80964 5.44787 2.92909Z" fill="#000099"/>
<path d="M3.28249 5.09365C3.40195 5.2131 3.40195 5.40655 3.28249 5.5264C3.16304 5.64624 2.96959 5.64586 2.84975 5.5264C2.7299 5.40694 2.73029 5.21349 2.84975 5.09365C2.9692 4.9738 3.16265 4.97419 3.28249 5.09365Z" fill="#000099"/>
</svg>