<svg width="400" height="76" viewBox="0 0 349 76" fill="none" xmlns="http://www.w3.org/2000/svg">
<g filter="url(#filter0_d_1887_366908)">
<mask id="path-1-inside-1_1887_366908" fill="white">
<path fill-rule="evenodd" clip-rule="evenodd" d="M316.566 10.0519C314.61 10.0177 312.443 10 310.008 10L182.465 10C181.773 11.1956 180.481 12 179 12C177.519 12 176.227 11.1956 175.535 10L163.465 10C162.773 11.1956 161.481 12 160 12C158.519 12 157.227 11.1956 156.535 10L56.4422 10C55.0009 10 53.6919 10.0025 52.4565 10.0145C51.7628 11.2021 50.4746 12 49 12C47.6215 12 46.4059 11.3027 45.6867 10.2416C42.0507 10.4749 38.0283 10.9312 31.8596 11.8214C19.0836 14.0387 12.0686 17.9732 12.0686 22.2478L12 21.7537C12 26.0283 19.2861 29.9528 32.062 32.1701C38.0768 33.0381 42.0939 33.4957 45.7018 33.7362C46.4229 32.6876 47.6311 32 49 32C50.4727 32 51.7595 32.7959 52.4538 33.981C53.8042 33.9967 55.2327 34 56.8151 34L156.535 34C157.227 32.8044 158.519 32 160 32C161.481 32 162.773 32.8044 163.465 34H175.535C176.227 32.8044 177.519 32 179 32C180.481 32 181.773 32.8044 182.465 34L310.12 34C312.485 34 314.618 33.981 316.568 33.944C317.267 32.7793 318.543 32 320 32C321.359 32 322.56 32.6781 323.283 33.7145C329.806 33.3738 334.224 32.7424 340.138 31.8975C340.529 31.8415 340.927 31.7847 341.333 31.7269C341.333 31.7269 347 28.2313 347 22.6686V21.1154C347 16.2121 341.295 12.1743 341.295 12.1743C339.888 11.9966 338.6 11.827 337.381 11.6667C332.594 11.0367 328.891 10.5493 323.295 10.2685C322.573 11.3145 321.367 12 320 12C318.541 12 317.264 11.2188 316.566 10.0519Z"/>
</mask>
<path fill-rule="evenodd" clip-rule="evenodd" d="M316.566 10.0519C314.61 10.0177 312.443 10 310.008 10L182.465 10C181.773 11.1956 180.481 12 179 12C177.519 12 176.227 11.1956 175.535 10L163.465 10C162.773 11.1956 161.481 12 160 12C158.519 12 157.227 11.1956 156.535 10L56.4422 10C55.0009 10 53.6919 10.0025 52.4565 10.0145C51.7628 11.2021 50.4746 12 49 12C47.6215 12 46.4059 11.3027 45.6867 10.2416C42.0507 10.4749 38.0283 10.9312 31.8596 11.8214C19.0836 14.0387 12.0686 17.9732 12.0686 22.2478L12 21.7537C12 26.0283 19.2861 29.9528 32.062 32.1701C38.0768 33.0381 42.0939 33.4957 45.7018 33.7362C46.4229 32.6876 47.6311 32 49 32C50.4727 32 51.7595 32.7959 52.4538 33.981C53.8042 33.9967 55.2327 34 56.8151 34L156.535 34C157.227 32.8044 158.519 32 160 32C161.481 32 162.773 32.8044 163.465 34H175.535C176.227 32.8044 177.519 32 179 32C180.481 32 181.773 32.8044 182.465 34L310.12 34C312.485 34 314.618 33.981 316.568 33.944C317.267 32.7793 318.543 32 320 32C321.359 32 322.56 32.6781 323.283 33.7145C329.806 33.3738 334.224 32.7424 340.138 31.8975C340.529 31.8415 340.927 31.7847 341.333 31.7269C341.333 31.7269 347 28.2313 347 22.6686V21.1154C347 16.2121 341.295 12.1743 341.295 12.1743C339.888 11.9966 338.6 11.827 337.381 11.6667C332.594 11.0367 328.891 10.5493 323.295 10.2685C322.573 11.3145 321.367 12 320 12C318.541 12 317.264 11.2188 316.566 10.0519Z" fill="white" fill-opacity="0.48" shape-rendering="crispEdges"/>

</g>
<rect width="71" height="24" transform="matrix(-1 0 0 1 101 9.5)" fill="url(#paint0_linear_1887_366908)"/>
<path d="M134.575 3L128 9.99999L209.911 10L217 3L134.575 3Z" fill="url(#paint2_linear_1887_366908)"/>
<path d="M134.575 41L128 34L209.911 34L217 41L134.575 41Z" fill="url(#paint3_linear_1887_366908)"/>
<defs>
<filter id="filter0_d_1887_366908" x="0" y="-2" width="359" height="48" filterUnits="userSpaceOnUse" color-interpolation-filters="sRGB">
<feFlood flood-opacity="0" result="BackgroundImageFix"/>
<feColorMatrix in="SourceAlpha" type="matrix" values="0 0 0 0 0 0 0 0 0 0 0 0 0 0 0 0 0 0 127 0" result="hardAlpha"/>
<feOffset/>
<feGaussianBlur stdDeviation="6"/>
<feComposite in2="hardAlpha" operator="out"/>
<feColorMatrix type="matrix" values="0 0 0 0 0.298039 0 0 0 0 0.364706 0 0 0 0 0.619608 0 0 0 0.08 0"/>
<feBlend mode="normal" in2="BackgroundImageFix" result="effect1_dropShadow_1887_366908"/>
<feBlend mode="normal" in="SourceGraphic" in2="effect1_dropShadow_1887_366908" result="shape"/>
</filter>
<linearGradient id="paint0_linear_1887_366908" x1="65.7015" y1="0" x2="2.40678" y2="0" gradientUnits="userSpaceOnUse">
<stop stop-color="white" stop-opacity="0"/>
<stop offset="0.9999" stop-color="white" stop-opacity="0.815"/>
<stop offset="1" stop-color="white"/>
</linearGradient>
<linearGradient id="paint1_linear_1887_366908" x1="107.891" y1="5" x2="97.7604" y2="7.52153" gradientUnits="userSpaceOnUse">
<stop stop-color="#15205F"/>
<stop offset="1" stop-color="#24409A"/>
</linearGradient>
<linearGradient id="paint2_linear_1887_366908" x1="165.444" y1="10" x2="165.444" y2="2.96789" gradientUnits="userSpaceOnUse">
<stop stop-color="#A7B3D7" stop-opacity="0.34"/>
<stop offset="1" stop-color="#F6F6F6" stop-opacity="0"/>
</linearGradient>
<linearGradient id="paint3_linear_1887_366908" x1="165.444" y1="34" x2="165.444" y2="41.0321" gradientUnits="userSpaceOnUse">
<stop stop-color="#A7B3D7" stop-opacity="0.34"/>
<stop offset="1" stop-color="#F6F6F6" stop-opacity="0"/>
</linearGradient>
</defs>
</svg>
