<svg xmlns="http://www.w3.org/2000/svg" width="20" height="20" viewBox="0 0 20 20" fill="none">
    <path fill-rule="evenodd" clip-rule="evenodd" d="M6.71323 12.403L16.4329 2.68282C16.677 2.43874 17.0727 2.43873 17.3168 2.6828C17.5609 2.92688 17.5609 3.3226 17.3168 3.56669L7.59714 13.2868C7.35307 13.5309 6.95734 13.5309 6.71325 13.2869C6.46917 13.0428 6.46916 12.6471 6.71323 12.403Z" fill="white"/>
    <path fill-rule="evenodd" clip-rule="evenodd" d="M14.655 5.34467V13.5561C14.655 13.9013 14.3752 14.1811 14.03 14.1811C13.6848 14.1811 13.405 13.9013 13.405 13.5561V6.5947L6.44381 6.59492C6.09863 6.59493 5.8188 6.31511 5.81879 5.96994C5.81878 5.62476 6.09859 5.34493 6.44377 5.34492L14.655 5.34467Z" fill="white"/>
    <path fill-rule="evenodd" clip-rule="evenodd" d="M8.01723 11.9828V16.875C8.01723 17.2202 7.73741 17.5 7.39223 17.5C7.04705 17.5 6.76723 17.2202 6.76723 16.875V13.2328H3.125C2.77982 13.2328 2.5 12.953 2.5 12.6078C2.5 12.2626 2.77982 11.9828 3.125 11.9828H8.01723Z" fill="white"/>
</svg>
