<svg width="17" height="16" viewBox="0 0 17 16" fill="none" xmlns="http://www.w3.org/2000/svg">
<g id="Frame 1321316520">
<g id="Vector">
<path fill-rule="evenodd" clip-rule="evenodd" d="M3.74339 5.01214C3.74339 4.73599 3.96725 4.51214 4.24339 4.51214H13.3327C13.6089 4.51214 13.8327 4.73599 13.8327 5.01214C13.8327 5.28828 13.6089 5.51214 13.3327 5.51214H4.24339C3.96725 5.51214 3.74339 5.28828 3.74339 5.01214Z" fill="#7A85A0"/>
<path fill-rule="evenodd" clip-rule="evenodd" d="M6.51631 2.14645C6.71157 2.34171 6.71157 2.65829 6.51631 2.85355L4.37319 4.99667L6.51631 7.13978C6.71157 7.33504 6.71157 7.65163 6.51631 7.84689C6.32104 8.04215 6.00446 8.04215 5.8092 7.84689L3.31253 5.35022C3.11727 5.15496 3.11727 4.83838 3.31253 4.64311L5.8092 2.14645C6.00446 1.95118 6.32104 1.95118 6.51631 2.14645Z" fill="#7A85A0"/>
<path fill-rule="evenodd" clip-rule="evenodd" d="M13.2554 10.9879C13.2554 11.264 13.0315 11.4879 12.7554 11.4879L3.66602 11.4879C3.38987 11.4879 3.16602 11.264 3.16602 10.9879C3.16602 10.7117 3.38987 10.4879 3.66602 10.4879L12.7554 10.4879C13.0315 10.4879 13.2554 10.7117 13.2554 10.9879Z" fill="#7A85A0"/>
<path fill-rule="evenodd" clip-rule="evenodd" d="M10.4824 13.8536C10.2871 13.6583 10.2871 13.3417 10.4824 13.1464L12.6255 11.0033L10.4824 8.86022C10.2871 8.66496 10.2871 8.34838 10.4824 8.15311C10.6777 7.95785 10.9943 7.95785 11.1895 8.15311L13.6862 10.6498C13.8814 10.845 13.8814 11.1616 13.6862 11.3569L11.1895 13.8536C10.9943 14.0488 10.6777 14.0488 10.4824 13.8536Z" fill="#7A85A0"/>
</g>
</g>
</svg>
