<svg width="20" height="20" viewBox="0 0 20 20" fill="none" xmlns="http://www.w3.org/2000/svg">
<g id="Frame 1321316535">
<g id="Vector">
<path fill-rule="evenodd" clip-rule="evenodd" d="M10 5.62526C10.3452 5.62526 10.625 5.90509 10.625 6.25026V10.0003C10.625 10.3454 10.3452 10.6253 10 10.6253H7.50002C7.15484 10.6253 6.87502 10.3454 6.87502 10.0003C6.87502 9.65509 7.15484 9.37526 7.50002 9.37526H9.37502V6.25026C9.37502 5.90509 9.65484 5.62526 10 5.62526Z" fill="#25304B"/>
<path fill-rule="evenodd" clip-rule="evenodd" d="M18.1419 12.0583C18.386 12.3024 18.386 12.6981 18.1419 12.9422L13.7753 17.3088C13.5312 17.5529 13.1355 17.5529 12.8914 17.3088C12.6473 17.0648 12.6473 16.669 12.8914 16.425L17.2581 12.0583C17.5021 11.8142 17.8979 11.8142 18.1419 12.0583Z" fill="#25304B"/>
<path fill-rule="evenodd" clip-rule="evenodd" d="M18.1419 17.3089C17.8979 17.5529 17.5021 17.5529 17.2581 17.3089L12.8914 12.9422C12.6473 12.6982 12.6473 12.3024 12.8914 12.0584C13.1355 11.8143 13.5312 11.8143 13.7753 12.0584L18.1419 16.425C18.386 16.6691 18.386 17.0648 18.1419 17.3089Z" fill="#25304B"/>
<path fill-rule="evenodd" clip-rule="evenodd" d="M10 2.9209C6.09019 2.9209 2.92065 6.09044 2.92065 10.0003C2.92065 13.9101 6.09019 17.0796 10 17.0796C10.3452 17.0796 10.625 17.3595 10.625 17.7046C10.625 18.0498 10.3452 18.3296 10 18.3296C5.39984 18.3296 1.67065 14.6004 1.67065 10.0003C1.67065 5.40008 5.39984 1.6709 10 1.6709C14.2964 1.6709 17.8324 4.92334 18.2813 9.10079C18.3182 9.44399 18.0699 9.75211 17.7267 9.78899C17.3835 9.82588 17.0754 9.57756 17.0385 9.23436C16.6571 5.68505 13.6509 2.9209 10 2.9209Z" fill="#25304B"/>
</g>
</g>
</svg>
