<svg xmlns="http://www.w3.org/2000/svg" width="20" height="20" viewBox="0 0 20 20" fill="none">
  <path fill-rule="evenodd" clip-rule="evenodd" d="M3.95898 1.66675C4.30416 1.66675 4.58398 1.94657 4.58398 2.29175V6.87508C4.58398 8.14073 5.61 9.16675 6.87565 9.16675C8.1413 9.16675 9.16732 8.14073 9.16732 6.87508V2.29175C9.16732 1.94657 9.44714 1.66675 9.79232 1.66675C10.1375 1.66675 10.4173 1.94657 10.4173 2.29175V6.87508C10.4173 8.83109 8.83166 10.4167 6.87565 10.4167C4.91964 10.4167 3.33398 8.83109 3.33398 6.87508V2.29175C3.33398 1.94657 3.61381 1.66675 3.95898 1.66675Z" fill="#000000"/>
  <path fill-rule="evenodd" clip-rule="evenodd" d="M6.87565 9.16675C7.22083 9.16675 7.50065 9.44657 7.50065 9.79175V17.7084C7.50065 18.0536 7.22083 18.3334 6.87565 18.3334C6.53047 18.3334 6.25065 18.0536 6.25065 17.7084V9.79175C6.25065 9.44657 6.53047 9.16675 6.87565 9.16675Z" fill="#000000"/>
  <path fill-rule="evenodd" clip-rule="evenodd" d="M6.87565 1.66675C7.22083 1.66675 7.50065 1.94657 7.50065 2.29175V6.45841C7.50065 6.80359 7.22083 7.08341 6.87565 7.08341C6.53047 7.08341 6.25065 6.80359 6.25065 6.45841V2.29175C6.25065 1.94657 6.53047 1.66675 6.87565 1.66675Z" fill="#000000"/>
  <path fill-rule="evenodd" clip-rule="evenodd" d="M15.0408 1.88709C15.7162 1.36224 16.6998 1.84359 16.6998 2.69898V16.6505C16.6998 17.5799 15.9464 18.3334 15.0169 18.3334C14.0875 18.3334 13.334 17.5799 13.334 16.6505V12.9167C13.334 12.7815 13.2901 12.6499 13.209 12.5417L12.7616 11.9452C12.3157 11.3507 12.0963 10.6169 12.1426 9.87526L12.3203 7.03309C12.4469 5.00692 13.4377 3.13274 15.0408 1.88709ZM15.4498 3.17605C14.3411 4.1903 13.6623 5.5993 13.5679 7.11107L13.3902 9.95323C13.3624 10.3982 13.4941 10.8385 13.7616 11.1952L14.209 11.7917C14.4524 12.1163 14.584 12.5111 14.584 12.9167V16.6505C14.584 16.8896 14.7778 17.0834 15.0169 17.0834C15.256 17.0834 15.4498 16.8896 15.4498 16.6505V3.17605Z" fill="#000000"/>
</svg>