<svg width="24" height="24" viewBox="0 0 24 24" fill="none" xmlns="http://www.w3.org/2000/svg">
<path d="M15.4832 4.62333C14.467 4.23554 13.3102 4 12 4C8.20195 4 5.69282 5.97927 4.16238 7.90895C3.39904 8.87142 2.87049 9.83026 2.5325 10.5475C2.36307 10.907 2.24034 11.2083 2.1591 11.4225C2.11846 11.5296 2.08812 11.6152 2.06745 11.6755C2.05711 11.7057 2.04918 11.7296 2.04359 11.7468L2.03693 11.7675L2.03489 11.7739L2.03419 11.7761C2.03408 11.7765 2.0337 11.7777 2.75 12L2.0337 11.7777C1.98877 11.9225 1.98877 12.0775 2.0337 12.2223L2.75 12C2.0337 12.2223 2.03359 12.2219 2.0337 12.2223L2.03419 12.2239L2.03489 12.2261L2.03693 12.2325L2.04359 12.2532C2.04918 12.2704 2.05711 12.2943 2.06745 12.3245C2.08812 12.3848 2.11846 12.4704 2.1591 12.5775C2.24034 12.7917 2.36307 13.093 2.5325 13.4525C2.86086 14.1493 3.36909 15.0742 4.09772 16.0088L5.16759 14.9389C4.58334 14.1632 4.16589 13.3998 3.88937 12.8131C3.73849 12.4929 3.63075 12.2278 3.5616 12.0455L3.54448 12L3.5616 11.9545C3.63075 11.7722 3.73849 11.5071 3.88937 11.1869C4.19201 10.5447 4.66346 9.69108 5.33762 8.84105C6.68218 7.14573 8.79805 5.5 12 5.5C12.8382 5.5 13.6019 5.61277 14.2969 5.80967L15.4832 4.62333Z" fill="#000099"/>
<path fill-rule="evenodd" clip-rule="evenodd" d="M6.51837 16.4166C7.8287 17.5849 9.61241 18.5 12 18.5C15.202 18.5 17.3178 16.8543 18.6624 15.159C19.3365 14.3089 19.808 13.4553 20.1106 12.8131C20.2615 12.4929 20.3692 12.2278 20.4384 12.0455L20.4555 12L20.4384 11.9545C20.3692 11.7722 20.2615 11.5071 20.1106 11.1869C19.808 10.5447 19.3365 9.69108 18.6624 8.84105C18.0387 8.05462 17.249 7.27886 16.2619 6.6731L17.3474 5.5876C18.3681 6.26795 19.1904 7.09289 19.8376 7.90895C20.601 8.87142 21.1295 9.83026 21.4675 10.5475C21.6369 10.907 21.7597 11.2083 21.8409 11.4225C21.8815 11.5296 21.9119 11.6152 21.9326 11.6755C21.9429 11.7057 21.9508 11.7296 21.9564 11.7468L21.9631 11.7675L21.9651 11.7739L21.9658 11.7761C21.9659 11.7765 21.9663 11.7777 21.25 12C21.9663 12.2223 21.9662 12.2226 21.9661 12.223L21.9651 12.2261L21.9631 12.2325L21.9564 12.2532C21.9508 12.2704 21.9429 12.2943 21.9326 12.3245C21.9119 12.3848 21.8815 12.4704 21.8409 12.5775C21.7597 12.7917 21.6369 13.093 21.4675 13.4525C21.1295 14.1697 20.601 15.1286 19.8376 16.091C18.3072 18.0207 15.798 20 12 20C9.12541 20 6.98915 18.8662 5.45674 17.4782L6.51837 16.4166ZM21.25 12L21.9663 11.7777C22.0112 11.9225 22.011 12.0782 21.9661 12.223L21.25 12Z" fill="#000099"/>
<path fill-rule="evenodd" clip-rule="evenodd" d="M12.3429 7.76363C12.2298 7.7546 12.1154 7.75 12 7.75C9.65279 7.75 7.75 9.65279 7.75 12C7.75 12.1154 7.7546 12.2298 7.76363 12.3429L12.3429 7.76363ZM8.50957 14.4254C9.27733 15.5282 10.5544 16.25 12 16.25C14.3472 16.25 16.25 14.3472 16.25 12C16.25 10.5544 15.5282 9.27733 14.4254 8.50957L13.3381 9.59691C14.1804 10.0669 14.75 10.9669 14.75 12C14.75 13.5188 13.5188 14.75 12 14.75C10.9669 14.75 10.0669 14.1804 9.59691 13.3381L8.50957 14.4254Z" fill="#000099"/>
<path fill-rule="evenodd" clip-rule="evenodd" d="M21.5303 2.46967C21.8232 2.76256 21.8232 3.23744 21.5303 3.53033L3.53033 21.5303C3.23744 21.8232 2.76256 21.8232 2.46967 21.5303C2.17678 21.2374 2.17678 20.7626 2.46967 20.4697L20.4697 2.46967C20.7626 2.17678 21.2374 2.17678 21.5303 2.46967Z" fill="black"/>
</svg>
