<svg width="17" height="16" viewBox="0 0 17 16" fill="none" xmlns="http://www.w3.org/2000/svg">
<path fill-rule="evenodd" clip-rule="evenodd" d="M4.08398 3.5C4.08398 2.67157 4.75556 2 5.58398 2H10.9173C11.7457 2 12.4173 2.67157 12.4173 3.5V13.3333H11.4173V3.5C11.4173 3.22386 11.1935 3 10.9173 3H5.58398C5.30784 3 5.08398 3.22386 5.08398 3.5V13.3333H4.08398V3.5Z" fill="#25304B"/>
<path fill-rule="evenodd" clip-rule="evenodd" d="M2.08398 6.83333C2.08398 6.00491 2.75556 5.33333 3.58398 5.33333H4.58398V6.33333H3.58398C3.30784 6.33333 3.08398 6.55719 3.08398 6.83333V13.3333H2.08398V6.83333Z" fill="#25304B"/>
<path fill-rule="evenodd" clip-rule="evenodd" d="M14.4173 6.83333C14.4173 6.00491 13.7457 5.33333 12.9173 5.33333H11.9173V6.33333H12.9173C13.1935 6.33333 13.4173 6.55719 13.4173 6.83333V13.3333H14.4173V6.83333Z" fill="#25304B"/>
<path fill-rule="evenodd" clip-rule="evenodd" d="M1.58398 13.5C1.58398 13.2239 1.80784 13 2.08398 13H14.4173C14.6935 13 14.9173 13.2239 14.9173 13.5C14.9173 13.7761 14.6935 14 14.4173 14H2.08398C1.80784 14 1.58398 13.7761 1.58398 13.5Z" fill="#25304B"/>
<path fill-rule="evenodd" clip-rule="evenodd" d="M6.25065 9.33333C6.25065 9.05719 6.47451 8.83333 6.75065 8.83333H9.75065C10.0268 8.83333 10.2507 9.05719 10.2507 9.33333V13.3333H9.25065V9.83333H7.25065V13.3333H6.25065V9.33333Z" fill="#25304B"/>
<path d="M7.58398 5C7.58398 5.27614 7.36013 5.5 7.08398 5.5C6.80784 5.5 6.58398 5.27614 6.58398 5C6.58398 4.72386 6.80784 4.5 7.08398 4.5C7.36013 4.5 7.58398 4.72386 7.58398 5Z" fill="#25304B"/>
<path d="M7.58398 7C7.58398 7.27614 7.36013 7.5 7.08398 7.5C6.80784 7.5 6.58398 7.27614 6.58398 7C6.58398 6.72386 6.80784 6.5 7.08398 6.5C7.36013 6.5 7.58398 6.72386 7.58398 7Z" fill="#25304B"/>
<path d="M9.91732 7C9.91732 7.27614 9.69346 7.5 9.41732 7.5C9.14117 7.5 8.91732 7.27614 8.91732 7C8.91732 6.72386 9.14117 6.5 9.41732 6.5C9.69346 6.5 9.91732 6.72386 9.91732 7Z" fill="#25304B"/>
<path d="M9.91732 5C9.91732 5.27614 9.69346 5.5 9.41732 5.5C9.14117 5.5 8.91732 5.27614 8.91732 5C8.91732 4.72386 9.14117 4.5 9.41732 4.5C9.69346 4.5 9.91732 4.72386 9.91732 5Z" fill="#25304B"/>
</svg>
